<svg width="401" height="261" viewBox="0 0 401 261" fill="none" xmlns="http://www.w3.org/2000/svg">
<path d="M227.658 225.998C227.658 225.998 273.706 103.646 304.067 118.322C334.428 133.032 256.346 192.953 244.007 229.031L227.658 225.998Z" fill="#D5D6DA"/>
<path d="M243.17 209.441C243.17 209.441 323.936 94.2696 358.341 120.309C392.711 146.313 284.965 183.89 262.621 218.26L243.17 209.441Z" fill="#EAEAEA"/>
<path d="M254.01 214.46C269.033 190.408 292.876 170.051 310.236 157.223C329.059 143.315 344.536 134.949 344.675 134.879L344.187 133.833C344.048 133.903 328.501 142.304 309.608 156.247C292.144 169.145 268.197 189.606 253.068 213.798L254.01 214.46Z" fill="white"/>
<path d="M377.62 195.393C362.945 200.622 367.895 224.778 350.326 222.234C335.477 220.038 334.117 218.748 329.551 223.802C327.982 225.545 326.692 227.532 325.647 229.658C324.392 232.203 321.847 236.072 317.525 237.397C291.172 245.554 250.249 207.035 275.904 180.264C277.752 178.347 280.645 177.336 283.852 176.43C301.246 171.411 307.625 179.532 319.302 155.48C331.015 131.428 353.115 161.441 364.862 158.931C376.609 156.422 386.683 151.402 397.245 163.881C407.807 176.36 392.295 190.164 377.62 195.393Z" fill="#D5D6DA"/>
<g opacity="0.5">
<g opacity="0.5">
<g opacity="0.5">
<path opacity="0.5" d="M287.512 210.382L286.85 209.545C287.198 209.232 322.056 178.382 399.72 167.472L399.86 168.552C322.509 179.428 287.861 210.068 287.512 210.382Z" fill="white"/>
</g>
</g>
<g opacity="0.5">
<g opacity="0.5">
<path opacity="0.5" d="M332.756 172.456C321.497 163.672 318.917 156.003 318.812 155.69L319.789 155.341C319.823 155.411 322.403 163.045 333.383 171.585L332.756 172.456Z" fill="#68A1BF"/>
</g>
</g>
<g opacity="0.5">
<g opacity="0.5">
<path opacity="0.5" d="M335.686 183.994C332.269 178.835 331.747 170.923 334.222 161.093C336.069 153.737 338.962 147.777 338.997 147.707L339.903 148.23C339.799 148.474 328.644 171.55 336.522 183.367L335.686 183.994Z" fill="#68A1BF"/>
</g>
</g>
</g>
<path d="M318.883 110.932C320.626 108.248 322.159 108.213 323.449 109.154C324.739 110.095 325.262 111.699 323.519 114.383C320.382 119.298 316.512 119.925 316.512 119.925C316.512 119.925 315.676 115.916 318.883 110.932Z" fill="#EAEAEA"/>
<path d="M146.962 166.112C146.962 166.112 148.461 108.945 134.029 109.084C119.598 109.224 140.931 147.637 139.99 164.265L146.962 166.112Z" fill="#D5D6DA"/>
<path d="M146.752 170.644C146.752 170.644 128.416 93.6073 105.794 98.9754C83.1706 104.344 130.543 148.09 135.109 170.678L146.752 170.644Z" fill="#EAEAEA"/>
<path d="M140.232 170.713C137.339 155.062 129.217 139.237 122.943 128.744C116.11 117.346 109.906 109.572 109.836 109.503L110.289 109.084C110.359 109.154 116.598 116.962 123.431 128.396C129.74 138.958 137.897 154.818 140.825 170.574L140.232 170.713Z" fill="white"/>
<path d="M106.213 185.563C97.2199 184.552 104.192 187.41 93.3855 186.748C91.0849 191.419 78.3269 186.504 74.353 179.463C69.2638 170.539 69.2638 172.596 53.8913 174.095C42.8413 175.175 42.3882 164.753 38.3446 156.875C38.2749 156.735 38.2052 156.596 38.1355 156.456C36.5669 153.528 34.4754 150.984 31.0593 149.624C27.4689 148.16 23.8088 146.069 20.6716 143.594C20.4276 143.385 20.1487 143.175 19.9047 142.966C13.7 137.807 9.79588 131.149 12.6891 124.84C12.7588 124.701 12.8285 124.526 12.8982 124.387C13.4211 123.341 14.1531 122.33 15.0594 121.319C24.7151 110.897 33.3251 115.672 43.4688 118.356C49.0809 119.821 57.7954 112.779 66.0568 109.781C66.1614 109.747 66.3008 109.712 66.4054 109.642C72.9587 107.376 79.1635 107.794 83.2767 117.206C83.3464 117.38 83.451 117.59 83.5207 117.764C92.7232 138.504 98.6143 131.881 113.464 136.901C116.218 137.842 118.693 138.818 120.261 140.596C134.658 157.049 122.562 176.848 106.213 185.563Z" fill="#EAEAEA"/>
<path d="M109.003 166.391L109.596 165.694C109.317 165.415 80.0012 137.075 12.6902 124.387L12.5508 125.328C79.6177 137.947 108.724 166.112 109.003 166.391Z" fill="white"/>
<path d="M70.9372 131.463C81.0461 124.282 83.5907 117.694 83.6953 117.415L82.8587 117.067C82.8238 117.136 80.3141 123.69 70.4492 130.696L70.9372 131.463Z" fill="white"/>
<path d="M67.9404 141.398C71.1125 137.04 71.8445 130.173 70.0319 121.494C68.6724 115.01 66.3718 109.677 66.3369 109.642L65.5352 110.06C65.6397 110.269 74.5285 130.836 67.2432 140.84L67.9404 141.398Z" fill="white"/>
<path d="M69.2983 88.1694C67.416 85.1019 67.7646 83.5681 68.88 82.7664C69.9955 81.9647 71.4595 82.2435 73.3419 85.311C76.7579 90.8883 76.4094 95.0364 76.4094 95.0364C76.4094 95.0364 72.7841 93.8513 69.2983 88.1694Z" fill="#D5D6DA"/>
<path d="M65.8133 99.1149C62.467 98.3828 61.7001 97.0234 61.9441 95.629C62.1881 94.2347 63.4081 93.2936 66.7545 93.9907C72.8547 95.2805 75.3296 98.4874 75.3296 98.4874C75.3296 98.4874 72.0181 100.439 65.8133 99.1149Z" fill="#D5D6DA"/>
<path d="M197.157 260.159C306.044 260.159 394.315 248.72 394.315 234.608C394.315 220.497 306.044 209.057 197.157 209.057C88.2703 209.057 0 220.497 0 234.608C0 248.72 88.2703 260.159 197.157 260.159Z" fill="#EAEAEA"/>
<path d="M106.107 40.3094C106.107 40.3094 238.079 91.0976 279.003 125.433C328.187 166.67 196.006 163.184 193.74 176.639C191.474 190.095 329.268 214.669 329.268 214.669C322.924 234.643 229.992 244.194 159.509 229.868C132.32 224.325 96.3114 207.698 98.8909 178.034C103.109 129.581 192.415 144.814 189.592 127.385C186.768 109.956 99.2744 51.2199 99.2744 51.2199L106.107 40.3094Z" fill="#D7D7D7"/>
<path d="M121.026 34.3137C110.778 26.9238 73.2355 18.8368 72.6778 23.2289C72.1201 27.6558 91.5012 69.1718 96.5904 67.9169C101.68 66.6272 104.643 46.6186 104.643 46.6186C104.643 46.6186 126.534 38.3224 121.026 34.3137Z" fill="#BFBFBF"/>
<path d="M314.56 183.158C315.188 183.89 316.094 185.667 316.687 186.434C316.931 186.748 317.767 187.933 317.488 188.282C317.244 188.561 316.199 187.968 315.745 187.619C316.024 190.478 315.257 194.765 314.281 188.839C314.316 189.467 314.595 192.848 313.828 192.604C313.131 192.395 312.852 189.955 312.782 188.944C312.782 188.944 312.782 188.944 312.748 188.944C312.748 189.99 312.713 192.465 312.12 192.012C311.388 191.454 311.04 188.805 311.04 188.805C311.04 188.805 311.423 192.186 310.517 191.663C309.994 191.384 309.959 189.397 309.959 188.177C309.959 187.933 309.959 187.689 309.959 187.515C309.959 187.375 309.959 187.236 309.994 187.131C310.098 185.075 310.482 183.785 310.482 183.785C310.482 183.785 310.691 182.182 312.329 182.007C313.305 181.938 314.281 182.844 314.56 183.158Z" fill="#FF7955"/>
<path d="M316.756 183.924C322.542 179.846 316.965 165.798 319.335 157.084C319.893 155.062 320.137 154.295 320.625 153.18C321.008 152.273 319.963 150.496 318.533 149.798C317.174 149.101 313.967 149.554 313.723 150.008C309.854 156.979 307.971 168.378 309.924 182.983C309.889 182.983 314.281 185.667 316.756 183.924Z" fill="#008F98"/>
<path d="M325.958 235.445C325.958 235.445 325.923 237.536 324.599 238.129C323.274 238.721 319.44 239.244 320.869 240.604C321.705 241.371 325.575 240.883 326.655 240.883C327.736 240.883 328.782 241.405 329.583 240.604C330.49 239.732 329.583 235.41 329.583 235.41C329.583 235.41 328.642 235.933 327.806 235.933C326.551 235.898 325.958 235.445 325.958 235.445Z" fill="#131F2D"/>
<path d="M314.525 171.898C314.525 171.898 314.246 181.415 317.07 199.611C319.092 212.752 321.497 226.033 322.682 232.377C323.1 234.643 324.878 236.316 326.97 236.421L328.085 236.456C330.351 236.56 332.198 234.434 332.059 231.959L329.2 188.944L328.503 174.792L314.525 171.898Z" fill="#0077BB"/>
<path d="M342.446 235.131C342.446 235.131 343.213 237.083 342.237 238.198C341.261 239.314 337.984 241.51 339.797 242.103C340.843 242.451 344.189 240.255 345.165 239.802C346.176 239.314 347.291 239.314 347.744 238.268C348.232 237.083 345.758 233.562 345.758 233.562C345.758 233.562 345.095 234.469 344.328 234.817C343.178 235.305 342.446 235.131 342.446 235.131Z" fill="#131F2D"/>
<path d="M326.236 172.805C326.236 172.805 326.69 182.286 330.872 200.203C333.905 213.136 337.286 226.138 338.96 232.377C339.552 234.608 341.434 236.107 343.561 236.002L344.676 235.968C346.942 235.863 348.65 233.597 348.267 231.122L342.132 188.526L340.354 174.478L326.236 172.805Z" fill="#005A8D"/>
<path d="M342.446 182.321C342.411 183.471 335.997 183.924 328.015 183.646C320.067 183.367 313.688 182.182 313.723 181.031C313.758 179.881 320.172 179.219 328.119 179.463C336.067 179.776 342.481 181.171 342.446 182.321Z" fill="#131F2D"/>
<path d="M340.494 149.868C340.494 149.868 339.099 143.873 328.712 143.803C313.723 143.698 315.117 158.548 313.723 181.066C313.723 181.066 328.468 179.114 342.446 182.321C342.446 182.321 343.735 159.036 340.494 149.868Z" fill="#00A0AA"/>
<path d="M344.328 148.997L337.531 153.04C337.531 153.04 322.681 154.504 318.742 153.807C314.803 153.11 313.723 149.973 313.723 149.973C313.723 149.973 317.94 145.302 325.052 144.047C325.714 143.942 326.411 143.838 327.143 143.803C328.363 143.733 329.583 143.733 330.768 143.873C339.796 144.988 344.328 148.997 344.328 148.997Z" fill="#008F98"/>
<path d="M314.979 181.972C314.979 181.972 323.623 179.254 341.471 182.983L341.61 185.737L315.432 186.748L314.979 181.972Z" fill="#025787"/>
<path d="M344.991 182.426C344.363 175.036 339.902 155.271 339.309 154.191C338.821 153.354 339.692 151.472 341.017 150.565C342.272 149.729 343.91 148.648 344.294 148.997C349.627 153.842 353.636 172.177 352.207 182.007L344.991 182.426Z" fill="#008F98"/>
<path d="M327.003 131.149C327.003 131.149 326.306 132.021 325.957 133.415C325.609 134.809 328.258 132.335 328.258 132.335L327.003 131.149Z" fill="#5C305D"/>
<path d="M332.059 144.082C330.979 145.511 329.062 145.302 327.528 144.605C326.308 144.012 326.482 144.047 326.656 143.838C327.075 143.315 327.423 143.175 327.423 142.583L327.458 141.816V141.711L327.493 140.701L327.563 138.923L327.737 134.287L329.097 138.958L329.341 139.759L330.107 142.478C330.386 143.315 332.059 144.047 332.059 144.082Z" fill="#FF7955"/>
<path d="M329.549 140.422C329.549 140.422 328.852 141.537 327.492 141.746V141.642L327.527 140.631C328.259 140.561 329.549 140.422 329.549 140.422Z" fill="#131F2D"/>
<path d="M332.383 137.726C333.536 135.269 332.887 132.534 330.935 131.619C328.983 130.703 326.466 131.953 325.313 134.411C324.161 136.869 324.809 139.603 326.761 140.519C328.714 141.434 331.23 140.184 332.383 137.726Z" fill="#FF7955"/>
<path d="M328.084 135.437C328.049 135.437 328.049 135.402 328.049 135.367C328.049 135.332 328.084 135.297 328.119 135.297C328.153 135.297 328.746 135.297 328.92 135.995C328.92 136.03 328.92 136.099 328.885 136.099C328.851 136.099 328.816 136.099 328.781 136.029C328.572 135.611 328.119 135.472 328.119 135.437C328.119 135.472 328.119 135.472 328.084 135.437Z" fill="#080435"/>
<path d="M326.203 134.426C326.203 134.426 326.168 134.391 326.168 134.356C326.168 134.321 326.203 134.287 326.238 134.252C326.273 134.252 326.761 134.043 326.97 134.6C326.97 134.635 326.97 134.67 326.935 134.705C326.9 134.74 326.865 134.705 326.865 134.67C326.656 134.391 326.273 134.356 326.273 134.356C326.238 134.426 326.203 134.426 326.203 134.426Z" fill="#080435"/>
<path d="M328.676 144.814C328.676 144.814 326.863 144.221 326.375 144.674C325.887 145.162 326.236 147.289 327.073 147.498C327.909 147.672 329.513 145.337 328.676 144.814Z" fill="#EE7D81"/>
<path d="M327.596 144.291C327.596 144.291 329.967 143.385 330.455 142.478C330.908 141.572 333.383 143.663 333.348 144.291C333.313 144.918 328.851 148.369 328.572 147.951C328.259 147.498 327.004 144.883 327.596 144.291Z" fill="#0077BB"/>
<path d="M327.596 144.291C327.596 144.291 327.248 143.35 327.422 142.827C327.422 142.827 327.527 142.374 327.178 142.409C326.83 142.443 324.843 143.907 324.668 144.361C324.494 144.814 324.459 146.94 325.087 147.08C325.714 147.219 327.283 144.953 327.457 144.709C327.631 144.535 327.596 144.291 327.596 144.291Z" fill="#0077BB"/>
<path d="M326.55 146.661C326.55 146.661 320.276 164.195 320.694 171.515C320.694 171.515 321.147 175.803 323.97 178.103C323.97 178.103 327.77 175.419 328.293 171.515C328.711 168.308 326.864 149.694 327.909 147.114L326.55 146.661Z" fill="#EE7D81"/>
<path d="M327.075 147.533C326.517 147.533 326.203 146.347 326.203 146.313L326.308 146.278C326.308 146.278 326.621 147.428 327.075 147.428C327.563 147.428 328.016 146.94 328.016 146.94L328.085 147.01C328.085 147.01 327.632 147.533 327.075 147.533Z" fill="#131F2D"/>
<path d="M331.57 134.077C331.57 134.077 330.071 135.053 328.224 134.147C328.224 134.147 328.05 133.938 328.468 133.903C328.886 133.868 329.583 133.52 329.548 133.276C329.514 133.032 327.248 134.287 325.888 133.415C325.888 133.415 323.971 132.3 325.679 131.672C326.725 131.289 327.457 127.838 332.232 130.069C332.93 130.383 334.359 131.289 334.359 132.718C334.359 132.718 336.241 133.659 335.474 136.239C334.359 140.143 330.664 139.829 330.664 139.829C330.664 139.829 332.86 137.18 331.814 137.11C330.49 137.04 330.246 136.064 331.012 135.646C331.884 135.228 332.616 133.973 331.57 134.077Z" fill="#131F2D"/>
<path d="M331.848 138.679C331.395 138.714 330.977 138.4 330.942 137.982C330.907 137.528 331.256 137.145 331.709 137.075C332.162 137.04 332.58 137.354 332.615 137.772C332.65 138.226 332.336 138.644 331.848 138.679Z" fill="#FF7955"/>
<path d="M335.823 133.659C335.788 133.659 335.754 133.624 335.754 133.589C335.51 132.788 334.638 132.579 334.638 132.544C334.603 132.544 334.568 132.474 334.568 132.439C334.568 132.404 334.638 132.369 334.673 132.369C334.708 132.369 335.649 132.613 335.928 133.52C335.928 133.589 335.893 133.624 335.823 133.659C335.858 133.659 335.858 133.659 335.823 133.659Z" fill="#131F2D"/>
<path d="M334.604 131.951H334.569C334.534 131.916 334.499 131.881 334.534 131.812C334.534 131.777 334.778 131.393 334.29 130.836C334.255 130.801 334.255 130.731 334.29 130.696C334.325 130.661 334.394 130.661 334.429 130.696C335.022 131.359 334.708 131.881 334.708 131.881C334.638 131.951 334.604 131.951 334.604 131.951Z" fill="#131F2D"/>
<path d="M348.74 184.166C350.738 184.039 352.303 183.064 352.234 181.988C352.166 180.912 350.491 180.143 348.493 180.269C346.495 180.396 344.93 181.371 344.999 182.447C345.067 183.523 346.742 184.292 348.74 184.166Z" fill="#131F2D"/>
<path d="M313.619 181.066C313.619 180.892 312.399 164.962 316.687 155.097L316.861 155.167C312.574 164.997 313.794 180.892 313.794 181.066H313.619Z" fill="#131F2D"/>
<path d="M342.619 166.774C341.503 161.79 339.133 158.269 339.133 158.234L339.272 158.13C339.307 158.164 341.643 161.72 342.793 166.739L342.619 166.774Z" fill="#131F2D"/>
<path d="M325.958 135.367C325.888 135.541 325.958 135.716 326.062 135.751C326.167 135.785 326.306 135.681 326.376 135.507C326.446 135.332 326.376 135.158 326.271 135.123C326.132 135.088 325.993 135.193 325.958 135.367Z" fill="#080435"/>
<path d="M327.735 136.378C327.665 136.552 327.735 136.727 327.84 136.762C327.944 136.796 328.084 136.692 328.153 136.518C328.223 136.343 328.153 136.169 328.049 136.134C327.909 136.099 327.77 136.204 327.735 136.378Z" fill="#080435"/>
<path d="M329.409 194.208C329.409 194.173 328.642 190.513 327.945 187.619C327.248 184.796 324.529 184.029 324.494 184.029L324.564 183.75C324.599 183.75 327.457 184.552 328.189 187.515C328.886 190.408 329.653 194.068 329.653 194.103L329.409 194.208Z" fill="white"/>
<path d="M346.42 195.219L345.305 195.184L345.409 190.408C345.444 189.188 346.316 188.177 347.431 187.968L350.952 187.341C351.997 187.166 353.008 187.689 353.496 188.665V188.7L355.762 193.65L354.751 194.103L352.485 189.153C352.207 188.63 351.684 188.351 351.161 188.456L347.64 189.084C347.048 189.188 346.56 189.746 346.56 190.443L346.42 195.219Z" fill="#131F2D"/>
<path d="M343.632 210.173L360.224 208.918C361.409 208.813 362.281 207.733 362.211 206.513L361.444 193.859C361.374 192.534 360.259 191.558 359.004 191.733L339.1 194.731C337.741 194.94 336.904 196.473 337.427 197.833L341.47 208.743C341.819 209.685 342.69 210.242 343.632 210.173Z" fill="#B05638"/>
<path d="M349.976 202.016H349.941L338.055 199.715L338.124 199.436L349.941 201.737L361.549 196.195L361.654 196.439L349.976 202.016Z" fill="#131F2D"/>
<path d="M349.942 203.062C350.325 202.992 350.569 202.608 350.499 202.19L350.395 201.493C350.325 201.075 349.976 200.831 349.593 200.9C349.21 200.97 348.966 201.354 349.035 201.737L349.14 202.434C349.21 202.852 349.558 203.131 349.942 203.062Z" fill="#131F2D"/>
<path d="M344.398 187.724C344.642 187.166 344.956 186.295 345.235 185.423C345.479 184.726 345.688 184.064 345.932 183.646C346.036 183.436 346.803 182.391 348.581 182.391C350.394 182.391 350.568 183.158 350.568 183.158C350.568 183.158 351.3 184.447 351.893 186.609C351.927 186.713 351.997 186.853 352.032 186.992C352.241 188.038 352.729 189.502 352.137 190.025C351.474 190.617 351.091 189.572 350.917 189.014C351.021 189.537 351.161 190.548 350.673 191.105C350.184 191.698 349.592 190.06 349.348 189.223C349.522 189.955 349.766 191.419 349.139 191.802C348.372 192.256 347.814 190.025 347.64 189.537C347.605 189.537 347.605 189.537 347.57 189.537C347.117 192.709 345.967 191.105 345.688 188.665C345.27 189.188 344.294 190.094 343.98 189.85C343.596 189.606 344.189 188.142 344.398 187.724Z" fill="#FF7955"/>
<path d="M326.412 138.016C326.342 138.226 326.203 138.4 326.063 138.33C325.924 138.295 325.854 138.086 325.924 137.842C325.994 137.633 326.133 137.459 326.272 137.528C326.412 137.598 326.482 137.807 326.412 138.016Z" fill="white"/>
<path d="M252.615 61.3287C248.502 53.1719 232.571 42.7842 227.656 43.6557C226.611 43.83 233.478 29.3987 235.813 30.8976C243.831 35.9869 255.787 47.1763 258.75 55.3331L252.615 61.3287Z" fill="#04AAB5"/>
<path d="M254.288 56.5183C256.24 54.0782 258.053 54.3919 258.75 55.2982C259.447 56.2046 258.576 58.2263 256.833 59.8298C255.055 61.3984 253.312 62.235 252.615 61.3287C251.918 60.3875 252.789 58.3658 254.288 56.5183Z" fill="#131F2D"/>
<path d="M254.566 59.5858C254.566 60.5967 254.95 62.6184 254.95 63.6293C254.95 64.0825 255.054 65.5465 255.473 65.6162C255.821 65.686 256.274 64.4659 256.414 63.8385C257.948 66.2437 261.189 68.9975 258.296 63.7339C258.645 64.2219 260.527 67.0454 260.98 66.3134C261.364 65.6511 260.074 63.5945 259.551 62.7579C259.551 62.7579 259.551 62.7579 259.586 62.723C260.213 63.5248 261.782 65.4071 261.956 64.6402C262.165 63.699 260.841 61.3984 260.841 61.3984C260.841 61.3984 262.619 64.2916 263.002 63.2459C263.211 62.6533 262.026 61.0847 261.294 60.1435C261.155 59.9344 261.015 59.7601 260.911 59.6206C260.841 59.5161 260.736 59.4115 260.667 59.3418C259.342 57.8429 258.227 57.1109 258.227 57.1109C258.227 57.1109 257.076 55.9954 255.717 57.076C254.776 57.7383 254.566 59.1675 254.566 59.5858Z" fill="#FF7955"/>
<path d="M218.176 117.659C218.176 117.659 219.083 120.099 217.828 121.459C216.573 122.818 212.46 125.468 214.691 126.234C215.98 126.688 220.163 124.073 221.418 123.515C222.673 122.958 224.067 122.993 224.625 121.668C225.253 120.204 222.29 115.742 222.29 115.742C222.29 115.742 221.453 116.858 220.477 117.276C219.083 117.868 218.176 117.659 218.176 117.659Z" fill="#131F2D"/>
<path d="M254.149 127.664C254.149 127.664 254.289 130.278 252.685 131.149C251.116 132.021 246.411 133.101 248.293 134.6C249.374 135.472 254.114 134.461 255.474 134.322C256.833 134.217 258.158 134.74 259.064 133.659C260.075 132.509 258.576 127.245 258.576 127.245C258.576 127.245 257.461 128.012 256.415 128.047C254.951 128.186 254.149 127.664 254.149 127.664Z" fill="#131F2D"/>
<path d="M224.311 67.5335C224.311 67.5335 218.978 64.4659 226.786 82.3133C232.398 95.1759 244.389 118.113 250.35 125.99C251.814 127.908 253.94 129.302 256.485 128.709L257.844 128.396C260.598 127.768 262.306 124.98 261.505 122.47L241.182 64.6054C241.182 64.6054 239.927 62.967 232.851 63.8036C224.206 64.7797 224.311 67.5335 224.311 67.5335Z" fill="#016DAA"/>
<path d="M216.955 68.7186C216.955 68.7186 206.323 77.224 203.535 88.3089C200.397 100.893 214.132 117.659 217.408 118.949C219.535 119.786 221.243 118.949 223.683 114.418C225.147 111.699 218.071 96.2914 220.301 90.9581C222.986 84.5442 236.057 79.2109 236.057 79.2109L234.802 62.6882C234.768 62.723 225.147 64.9539 216.955 68.7186Z" fill="#005A8D"/>
<path d="M239.822 35.2897C239.822 35.2897 237.94 28.4575 225.984 28.9455C216.781 29.2941 211.657 30.6187 210.542 37.172C210.158 39.5075 209.217 48.1523 214.132 71.1238C214.132 71.1238 230.341 78.688 245.504 70.4266C245.504 70.4266 243.204 58.1566 240.45 39.2984C240.206 37.6949 240.276 36.4748 239.822 35.2897Z" fill="#00A0AA"/>
<path d="M223.266 31.8737C223.858 34.1394 228.111 50.2439 251.64 44.1437C253.104 43.7603 254.638 43.8648 256.032 44.4226L259.902 45.9563C260.39 46.1655 260.564 46.7929 260.25 47.2461L257.915 50.3833C256.416 52.4051 254.324 53.7994 251.989 54.3571C247.109 55.5423 238.394 56.6926 231.004 52.6839C222.255 47.9432 221.105 36.5446 221 32.2222C221 31.5251 221.732 31.1068 222.22 31.5599C222.429 31.6296 223.231 31.6994 223.266 31.8737Z" fill="#EE7D81"/>
<path d="M225.6 27.2724L224.973 24.0306L224.798 23.0894L223.718 17.5121L223.056 22.8803L222.672 26.1221L222.533 27.1329C222.463 27.8301 222.045 27.9347 221.522 28.4924C221.313 28.7016 219.953 30.0959 221.278 30.8976C222.951 31.9085 226.367 30.9673 227.761 29.4336C227.692 29.3987 225.809 28.3181 225.6 27.2724Z" fill="#FF7955"/>
<path d="M225.146 24.8671C225.146 24.8671 224.031 26.0174 222.637 26.0523L222.811 24.7277L225.146 24.8671Z" fill="#131F2D"/>
<path d="M219.849 15.0373C219.849 15.0373 219.431 16.327 219.605 18.0002C219.779 19.6734 221.696 15.8041 221.696 15.8041L219.849 15.0373Z" fill="#5C305D"/>
<path d="M219.361 18.4533C220.024 15.3161 222.533 13.2246 224.939 13.8172C227.344 14.4098 228.773 17.4425 228.111 20.5797C227.448 23.7169 224.939 25.8084 222.533 25.2158C220.128 24.6232 218.699 21.5906 219.361 18.4533Z" fill="#FF7955"/>
<path d="M228.389 18.9413L226.228 18.4882C225.74 18.3836 225.357 18.0699 225.113 17.6167C224.729 16.815 224.241 16.3967 222.219 16.2573C219.64 16.1178 218.106 14.3052 217.967 12.8412C217.827 11.3423 219.222 10.4708 220.442 11.3074C221.662 12.144 221.278 10.3663 222.498 10.2965C224.834 10.192 225.113 12.144 226.995 12.2834C229.47 12.4577 233.757 14.9327 231.248 19.3945L228.389 18.9413Z" fill="#131F2D"/>
<path d="M223.473 19.2551C223.438 19.2551 223.403 19.2551 223.403 19.2202C223.368 19.1854 223.368 19.1156 223.403 19.0808C223.438 19.0459 223.926 18.5579 224.623 19.0111C224.658 19.0459 224.693 19.1156 224.658 19.1505C224.623 19.1854 224.588 19.1854 224.519 19.1854C224.031 19.0111 223.543 19.2551 223.508 19.2551C223.543 19.2202 223.508 19.2202 223.473 19.2551Z" fill="#080435"/>
<path d="M220.199 18.4882C220.164 18.4882 220.164 18.4533 220.164 18.4185C220.164 18.3487 220.234 18.279 220.269 18.2442C220.303 18.2442 221.001 17.8259 221.105 18.7322C221.105 18.8019 221.07 18.8716 221.036 18.9065C221.001 18.9413 220.931 18.9413 220.931 18.9065C220.757 18.4882 220.269 18.4882 220.234 18.523C220.234 18.4882 220.234 18.4882 220.199 18.4882Z" fill="#080435"/>
<path d="M220.964 19.7082C220.964 19.9522 220.859 20.1265 220.685 20.1265C220.511 20.1265 220.406 19.9522 220.371 19.7082C220.371 19.4642 220.476 19.2899 220.65 19.2899C220.824 19.2899 220.929 19.4991 220.964 19.7082Z" fill="#080435"/>
<path d="M231.246 19.3946C231.246 19.3946 229.468 22.7061 227.307 22.7758C227.307 22.7758 229.259 20.3009 225.773 18.314C225.773 18.314 229.155 18.0699 231.246 19.3946Z" fill="#5C305D"/>
<path d="M228.075 20.998C227.587 21.2768 227.029 21.1025 226.82 20.6494C226.611 20.1962 226.82 19.6037 227.273 19.3248C227.761 19.0459 228.319 19.2202 228.528 19.6734C228.737 20.1265 228.563 20.754 228.075 20.998Z" fill="#FF7955"/>
<path d="M220.825 11.0983C220.79 11.0983 220.72 11.0983 220.686 11.0983V10.9588C221.278 11.0286 221.383 10.5405 221.383 10.5057L221.522 10.5405C221.522 10.5405 221.418 11.0983 220.825 11.0983Z" fill="#131F2D"/>
<path d="M221.557 15.4207C221.557 15.4207 220.86 15.1418 220.197 14.6538C219.326 14.0264 218.838 13.3292 218.838 12.7018C218.838 12.2486 218.942 11.9349 219.152 11.7955C219.465 11.5863 219.953 11.7606 220.372 11.9C220.441 11.9349 220.511 11.9349 220.546 11.9698L220.511 12.0395C220.441 12.0046 220.372 12.0046 220.337 11.9698C219.918 11.8303 219.465 11.656 219.152 11.8652C218.942 12.0046 218.873 12.2835 218.873 12.7366C218.873 14.2704 221.487 15.3858 221.522 15.4207H221.557Z" fill="white"/>
<path d="M227.762 12.9109C226.472 12.9109 225.601 12.4926 225.043 12.1092C224.416 11.6909 224.137 11.2377 224.137 11.2377L224.206 11.2029C224.206 11.2377 225.357 12.9458 228.041 12.8412V12.9109C227.936 12.9109 227.832 12.9109 227.762 12.9109Z" fill="white"/>
<path d="M220.512 22.2529C220.512 22.2529 220.686 23.4032 221.836 23.473C223.091 23.5427 223.405 22.5318 223.405 22.5318C223.405 22.5318 221.732 22.8107 220.512 22.2529Z" fill="white"/>
<path d="M224.59 20.266H224.555C224.032 19.9523 223.3 20.1265 223.3 20.1265C223.265 20.1265 223.195 20.1265 223.195 20.0568C223.195 20.022 223.195 19.9523 223.265 19.9523C223.3 19.9523 224.067 19.7431 224.659 20.1265C224.694 20.1614 224.729 20.1963 224.694 20.2311C224.659 20.2311 224.624 20.266 224.59 20.266Z" fill="#131F2D"/>
<path d="M223.891 30.0262C223.891 30.0262 221.765 29.4336 221.242 29.9913C220.719 30.549 221.207 33.0239 222.183 33.1982C223.125 33.3725 224.867 30.5839 223.891 30.0262Z" fill="#EE7D81"/>
<path d="M222.149 33.2331C221.522 33.2331 221.138 31.9433 221.104 31.8736L221.208 31.8388C221.208 31.8388 221.592 33.1285 222.149 33.1285C222.742 33.1285 223.23 32.5011 223.23 32.5011L223.3 32.5708C223.3 32.6056 222.777 33.2331 222.149 33.2331Z" fill="white"/>
<path d="M222.846 66.4528C223.055 66.8014 223.473 66.8711 223.787 66.662C224.101 66.4528 224.171 65.9997 223.961 65.6511C223.752 65.3025 223.369 65.1282 223.09 65.3374C222.637 65.6511 222.637 66.1042 222.846 66.4528Z" fill="white"/>
<path d="M221.453 55.7514C221.592 56.1349 222.011 56.3091 222.324 56.1348C222.673 55.9606 222.812 55.5423 222.673 55.1937C222.534 54.8102 222.185 54.5662 221.836 54.7405C221.383 54.9148 221.314 55.368 221.453 55.7514Z" fill="white"/>
<path d="M220.094 44.9105C220.233 45.294 220.651 45.4683 220.965 45.294C221.314 45.1197 221.453 44.7014 221.314 44.3528C221.174 43.9694 220.826 43.7254 220.477 43.8996C220.024 44.1088 219.954 44.5619 220.094 44.9105Z" fill="white"/>
<path d="M220.511 28.9107C214.271 28.9107 208.729 32.6754 207.056 31.0022C206.637 30.6187 208.764 17.3378 208.764 17.3378L203.605 17.5121C203.605 17.5121 193.635 34.6623 198.794 40.3093C205.138 47.246 214.411 43.0282 214.411 43.0282C214.411 43.0282 223.718 28.9107 220.511 28.9107Z" fill="#04AAB5"/>
<path d="M218.177 21.3116L205.523 18.8367C204.896 18.6972 204.443 18.0349 204.582 17.3378L204.826 15.8737C204.931 15.1766 205.558 14.7234 206.22 14.8629L218.874 17.3378C219.501 17.4772 219.954 18.1395 219.815 18.8367L219.571 20.3007C219.432 20.963 218.839 21.451 218.177 21.3116Z" fill="#131F2D"/>
<path d="M210.088 21.1722L197.888 18.767C197.051 18.5927 196.493 17.7213 196.633 16.815L197.19 13.5383C197.33 12.632 198.166 12.0394 199.003 12.1789L211.203 14.5841C212.04 14.7584 212.598 15.6298 212.458 16.5361L211.901 19.8128C211.726 20.7191 210.925 21.3117 210.088 21.1722Z" fill="#364154"/>
<path d="M199.98 20.1265L180.599 16.327C179.901 16.1875 179.448 15.4904 179.588 14.7235L180.564 9.00678C180.703 8.27476 181.365 7.75189 182.028 7.89132L201.409 11.6908C202.106 11.8303 202.559 12.5274 202.42 13.2943L201.444 19.011C201.339 19.7431 200.677 20.2659 199.98 20.1265Z" fill="#EE7D81"/>
<path d="M179.414 16.7453L178.438 16.571C177.915 16.4664 177.566 15.9087 177.671 15.3509L178.995 7.57759C179.1 7.01986 179.588 6.63643 180.146 6.741L181.122 6.91529C181.645 7.01986 181.993 7.57759 181.889 8.13532L180.564 15.9087C180.46 16.4664 179.937 16.8498 179.414 16.7453Z" fill="#131F2D"/>
<path d="M206.323 12.3182C206.323 12.3182 205.033 11.6908 204.51 12.9805C203.848 14.6189 204.476 17.3378 204.929 16.2921C205.312 15.3858 205.486 14.34 205.486 14.34C205.486 14.34 204.964 17.6167 205.73 17.4772C206.462 17.3378 206.916 14.6886 206.916 14.6886C206.916 14.6886 206.672 17.8258 207.334 17.4424C207.996 17.0589 208.345 15.2115 208.345 15.2115C208.345 15.2115 207.996 17.7212 208.798 17.3029C209.565 16.8498 209.46 14.9675 209.565 14.1657C209.669 13.3988 209.251 13.0851 208.554 13.0154C208.554 13.0154 207.892 12.5274 207.438 12.5971C207.264 12.632 207.125 12.4228 206.985 12.388C206.741 12.3531 206.323 12.3182 206.323 12.3182Z" fill="#FF7955"/>
<path d="M227.586 83.8122C227.552 83.8122 227.517 83.7773 227.482 83.7424C225.774 79.6641 222.079 79.2109 222.044 79.2109C221.974 79.2109 221.939 79.1412 221.939 79.0715C221.939 79.0018 222.009 78.9669 222.079 78.9669C222.114 78.9669 225.983 79.4549 227.726 83.6379C227.761 83.7076 227.726 83.7773 227.656 83.7773C227.586 83.8122 227.586 83.8122 227.586 83.8122Z" fill="white"/>
<path d="M210.228 44.2482C210.158 44.2482 210.123 44.2133 210.123 44.1436C210.158 39.8212 210.437 37.2068 210.437 37.172C210.437 37.1023 210.506 37.0674 210.576 37.0674C210.646 37.0674 210.681 37.1371 210.681 37.2068C210.681 37.2417 210.402 39.8561 210.367 44.1436C210.332 44.1785 210.262 44.2482 210.228 44.2482Z" fill="#131F2D"/>
<path d="M222.637 29.5033C222.637 29.5033 225.321 28.353 225.809 27.2724C226.297 26.1918 229.226 28.4924 229.226 29.1896C229.191 29.9216 223.823 34.1743 223.474 33.6863C223.09 33.1982 221.975 30.2005 222.637 29.5033Z" fill="#008088"/>
<path d="M222.637 29.5033C222.637 29.5033 222.184 28.4227 222.358 27.8301C222.358 27.8301 222.463 27.3072 222.044 27.3421C221.626 27.4118 219.43 29.1895 219.256 29.7473C219.081 30.2701 219.151 32.7102 219.883 32.8845C220.615 33.0239 222.288 30.3399 222.497 30.061C222.672 29.7473 222.637 29.5033 222.637 29.5033Z" fill="#008088"/>
<path d="M23.9146 237.292C23.9146 237.292 29.3176 207.419 30.1542 206.513C30.9908 205.641 32.2805 206.408 31.8274 208.081C31.3742 209.754 25.0998 236.7 24.8209 237.292C24.5769 237.885 23.7752 238.129 23.9146 237.292Z" fill="#131F2D"/>
<path d="M58.4574 198.181C58.4923 192.848 46.2571 176.848 39.8781 174.827C32.6625 172.561 23.3902 168.448 20.6713 175.872C17.9523 183.297 27.0503 206.164 27.0503 206.164C27.0503 206.164 27.5732 208.186 29.3858 208.43C31.2333 208.674 53.9607 209.441 53.9956 208.43C54.0653 207.767 61.6644 199.262 58.4574 198.181Z" fill="#B8C1C9"/>
<path d="M55.0431 162.417C55.0431 162.417 63.5136 176.674 74.8425 180.02L72.8208 184.935C72.8208 184.935 58.4941 182.809 50.2676 167.925L55.0431 162.417Z" fill="#FF7955"/>
<path d="M63.7908 233.772C63.7908 233.772 63.7211 236.072 65.1503 236.804C66.5795 237.536 70.7276 238.373 69.0893 239.767C68.1481 240.569 63.9303 239.767 62.7451 239.697C61.5599 239.628 60.4096 240.116 59.5381 239.209C58.597 238.199 59.817 233.528 59.817 233.528C59.817 233.528 60.8279 234.155 61.7342 234.19C63.0937 234.26 63.7908 233.772 63.7908 233.772Z" fill="#131F2D"/>
<path d="M78.4998 233.772C78.4998 233.772 78.4301 236.072 79.8593 236.804C81.2885 237.536 85.4366 238.373 83.7982 239.767C82.8571 240.569 78.6392 239.767 77.4541 239.697C76.2689 239.628 75.1186 240.116 74.2471 239.209C73.306 238.199 74.526 233.528 74.526 233.528C74.526 233.528 75.5369 234.155 76.4432 234.19C77.8375 234.26 78.4998 233.772 78.4998 233.772Z" fill="#131F2D"/>
<path d="M80.069 229.972C79.0233 214.878 78.7444 204.7 74.3174 198.147C69.4721 190.966 56.4352 185.911 51.4157 185.598C43.224 185.075 39.3548 186.399 39.3548 186.399C33.2198 200.168 42.8406 201.981 49.9516 202.364C50.1956 202.364 50.4396 202.399 50.6488 202.399C54.9712 202.678 62.64 203.863 65.5332 208.499C67.8338 212.16 69.4373 217.284 70.0996 230.495C70.239 233.04 72.1911 234.992 74.5614 234.922C74.5963 234.922 80.4524 235.41 80.069 229.972Z" fill="#005A8D"/>
<path d="M68.4283 230.739C68.5677 215.61 69.0209 207.872 64.7682 201.144C62.0492 196.822 57.9709 193.58 52.6376 191.489C48.838 189.99 44.3413 189.049 39.3218 188.735C31.1301 188.212 27.47 187.166 27.47 187.166C20.847 204.77 45.0734 201.04 51.3827 208.534C54.1365 211.811 57.5526 218.016 58.2149 231.262C58.3543 233.806 60.3063 235.758 62.6767 235.689C62.7464 235.689 68.3934 236.281 68.4283 230.739Z" fill="#046EAA"/>
<path d="M68.3922 215.854C68.3922 215.75 67.3947 207.137 66.0004 204C64.2226 200.026 60.7985 194.411 55.5001 192.668C60.8334 194.411 64.9064 199.611 66.6842 203.584C68.0785 206.756 68.4968 215.75 68.4968 215.82L68.3922 215.854Z" fill="white"/>
<path d="M33.3258 159.21C33.3258 159.21 36.8116 152.796 44.829 154.783C52.8463 156.77 56.123 165.589 56.7156 186.783C56.7156 186.783 49.2908 186.504 29.7354 193.476C27.4348 194.312 24.0187 193.65 25.2039 189.397C27.4348 181.484 29.5611 165.763 33.3258 159.21Z" fill="#00A0AA"/>
<path d="M26.2148 160.953L32.7333 162.731C32.7333 162.731 47.1645 167.332 51.2081 167.367C55.2516 167.402 56.9248 164.23 56.9248 164.23C56.9248 164.23 53.6481 158.269 46.816 155.445C46.1885 155.167 45.4914 154.957 44.7942 154.748C43.609 154.4 42.4238 154.121 41.2038 154.086C27.6092 153.947 26.2148 160.953 26.2148 160.953Z" fill="#01949D"/>
<path d="M26.2148 160.953C26.2148 161.685 28.2018 162.278 30.607 162.278C33.0122 162.278 34.9642 161.685 34.9642 160.953C34.9642 160.221 32.9773 159.628 30.5721 159.628C28.1669 159.628 26.2148 160.221 26.2148 160.953Z" fill="#00A0AA"/>
<path d="M38.0664 154.225C38.9379 154.051 39.5653 153.389 39.8442 152.483L40.6808 149.624L40.9248 148.788L42.3888 143.942L42.4934 148.788L42.5631 151.716L42.598 152.552C42.598 153.215 42.6328 154.086 43.2951 154.365C43.2951 154.365 44.1317 155.933 43.1557 156.352C41.5522 157.014 38.0664 154.225 38.0664 154.225Z" fill="#FF7955"/>
<path d="M35.9414 144.465C35.9414 144.465 36.29 145.197 36.29 146.87C36.29 149.345 38.9741 149.589 39.4272 148.753C39.4969 148.648 38.3815 144.779 38.3815 144.779L37.4752 144.5L35.9414 144.465Z" fill="#131F2D"/>
<path d="M40.68 149.554C40.68 149.589 40.68 149.624 40.68 149.624C40.924 151.158 42.5275 151.751 42.5275 151.751L42.4578 148.822C41.9698 148.683 41.2726 148.578 40.8892 148.822C40.7149 148.927 40.6103 149.171 40.68 149.554Z" fill="#131F2D"/>
<path d="M42.513 149.962C44.8157 149.499 46.1879 146.661 45.5779 143.623C44.9679 140.584 42.6068 138.495 40.3041 138.957C38.0014 139.42 36.6293 142.258 37.2392 145.296C37.8492 148.335 40.2104 150.424 42.513 149.962Z" fill="#FF7955"/>
<path d="M41.9712 139.829C41.9015 140.038 43.261 142.618 38.6249 144.709C33.9887 146.801 35.2785 139.655 38.7992 138.47C43.8536 136.762 45.5616 140.247 45.3873 141.711C45.2479 143.21 41.9712 139.829 41.9712 139.829Z" fill="#131F2D"/>
<path d="M34.7547 138.33C34.7547 138.33 36.8114 139.062 35.7656 140.631C34.7199 142.199 31.1992 143.803 32.6981 145.476C34.197 147.149 35.8353 149.833 34.1273 150.74C32.4192 151.646 31.2341 151.82 30.9203 153.598C30.5718 155.341 27.0511 155.376 26.8768 153.459C26.6677 151.541 23.4607 150.74 24.2276 148.718C24.9945 146.661 27.574 144.326 27.7483 141.921C27.8877 139.515 33.1164 137.807 34.7547 138.33Z" fill="#131F2D"/>
<path d="M38.9372 143.663C38.9372 143.663 37.5429 146.452 38.7978 148.544C38.7978 148.544 37.3337 147.533 37.1594 147.045C37.02 146.557 36.8457 144.674 36.8457 144.674L38.9372 143.663Z" fill="#131F2D"/>
<path d="M38.1024 146.313C38.695 146.661 39.3573 146.522 39.5665 145.999C39.8105 145.476 39.4968 144.779 38.939 144.465C38.3813 144.151 37.6841 144.256 37.475 144.779C37.231 145.302 37.5098 145.999 38.1024 146.313Z" fill="#FF7955"/>
<path d="M28.1655 155.062L28.0609 154.957C28.4444 154.644 28.6187 154.365 28.6535 154.086C28.6884 153.633 28.3049 153.215 27.9215 152.796C27.5381 152.378 27.1198 151.925 27.0849 151.437C27.0152 150.774 27.7124 150.426 28.3747 150.077C28.8975 149.833 29.4204 149.554 29.525 149.171C29.5947 148.997 29.5598 148.788 29.4204 148.544C29.281 148.265 29.1067 148.021 28.9672 147.777C28.2701 146.696 27.7124 145.825 28.8975 143.175C30.3964 139.794 32.209 139.132 33.9171 138.923C34.1262 138.888 34.7885 138.992 34.8931 139.376C34.9977 139.724 34.5097 140.143 33.4291 140.631C33.4291 140.631 31.6513 141.677 31.3027 144.117C31.1284 145.406 32.1045 146.382 32.9411 147.289C33.7428 148.125 34.4051 148.822 33.7777 149.485C33.4291 149.833 33.0108 150.112 32.6273 150.356C31.6165 150.984 30.6753 151.611 31.0587 153.633L30.9193 153.668C30.5359 151.541 31.5119 150.914 32.5576 150.252C32.9411 150.008 33.3594 149.764 33.6731 149.415C34.196 148.857 33.6034 148.23 32.8365 147.428C31.9999 146.557 30.9542 145.476 31.1633 144.151C31.5119 141.607 33.3594 140.561 33.3594 140.526C34.7188 139.899 34.7885 139.55 34.7537 139.446C34.684 139.202 34.1611 139.097 33.9519 139.097C32.2788 139.306 30.5359 139.968 29.0718 143.28C27.9215 145.859 28.4444 146.696 29.1415 147.742C29.281 147.986 29.4553 148.23 29.6295 148.509C29.769 148.788 29.8038 148.997 29.7341 149.241C29.5947 149.694 29.037 149.973 28.5141 150.252C27.8518 150.565 27.2592 150.879 27.3289 151.437C27.3638 151.89 27.7821 152.308 28.1307 152.727C28.5489 153.18 28.9672 153.633 28.8975 154.121C28.7581 154.4 28.5489 154.748 28.1655 155.062Z" fill="white"/>
<path d="M38.1716 143.036L38.1367 142.897C39.8796 142.339 40.4025 140.561 40.4025 140.526L40.5768 140.561C40.5419 140.596 40.0191 142.478 38.1716 143.036Z" fill="white"/>
<path d="M45.3522 146.94C44.411 147.01 43.5395 146.104 43.435 144.884C43.3652 144.221 43.5395 143.594 43.923 143.141C44.2018 142.792 44.5853 142.548 45.0036 142.513C45.9447 142.443 46.8162 143.35 46.9208 144.57C46.9905 145.232 46.8162 145.86 46.4328 146.313C46.2236 146.592 45.9447 146.801 45.631 146.87C45.5264 146.94 45.4567 146.94 45.3522 146.94ZM43.9927 143.245C43.6441 143.663 43.5047 144.291 43.5395 144.918C43.6441 146.069 44.4458 146.94 45.3522 146.87C45.7356 146.836 46.0842 146.626 46.363 146.278C46.7116 145.86 46.8511 145.232 46.8162 144.605C46.7116 143.454 45.9099 142.583 45.0036 142.653C44.9339 142.653 44.8293 142.687 44.7596 142.687C44.4458 142.792 44.2018 142.966 43.9927 143.245Z" fill="#364154"/>
<path d="M41.2389 147.533C40.2977 147.602 39.4263 146.696 39.3217 145.476C39.252 144.814 39.4263 144.186 39.8097 143.733C40.0886 143.385 40.472 143.141 40.8903 143.106C41.8315 143.036 42.7029 143.942 42.8075 145.162C42.8772 145.825 42.7029 146.452 42.3195 146.905C42.1103 147.184 41.8315 147.393 41.5177 147.463C41.448 147.498 41.3435 147.498 41.2389 147.533ZM39.8794 143.803C39.5308 144.221 39.3914 144.849 39.4263 145.476C39.5308 146.626 40.3326 147.498 41.2389 147.428C41.6223 147.393 41.9709 147.184 42.2498 146.836C42.5983 146.417 42.7378 145.79 42.7029 145.162C42.5983 144.012 41.7966 143.141 40.8903 143.21C40.8206 143.21 40.716 143.245 40.6463 143.245C40.3674 143.35 40.0886 143.524 39.8794 143.803Z" fill="#364154"/>
<path d="M43.9924 144.953C44.0273 144.884 44.0273 144.849 43.9924 144.849C43.9576 144.849 43.3301 144.605 42.4587 145.023C42.4238 145.023 42.4238 145.058 42.4238 145.093C42.4238 145.128 42.4587 145.128 42.4935 145.128C43.3301 144.709 43.9576 144.953 43.9924 144.953C43.9576 144.953 43.9576 144.953 43.9924 144.953Z" fill="#364154"/>
<path d="M44.5843 147.324C44.5843 147.324 43.19 147.777 41.6562 147.637C41.6562 147.637 41.9003 149.136 43.4689 148.788C44.3403 148.613 44.5843 147.324 44.5843 147.324Z" fill="#E9633E"/>
<path d="M44.5843 147.324C44.5843 147.324 44.3403 147.742 43.5386 147.951C42.7369 148.195 41.6562 147.637 41.6562 147.637C41.6562 147.637 43.4689 147.637 44.5843 147.324Z" fill="white"/>
<path d="M41.8308 144.395C41.8656 144.395 41.8656 144.361 41.8656 144.326C41.8656 144.256 41.8308 144.221 41.7959 144.221C41.7611 144.221 41.0639 144.047 40.6805 144.849C40.6456 144.883 40.6805 144.953 40.7153 144.988C40.7502 145.023 40.8199 144.988 40.8547 144.953C41.2033 144.535 41.7611 144.43 41.7959 144.43L41.8308 144.395Z" fill="#080435"/>
<path d="M41.3779 145.72C41.4476 145.964 41.6219 146.138 41.7613 146.069C41.9007 145.999 42.0053 145.79 41.9704 145.546C41.9007 145.302 41.7264 145.127 41.587 145.197C41.4127 145.232 41.343 145.476 41.3779 145.72Z" fill="#080435"/>
<path d="M45.2813 143.942C45.3162 143.942 45.351 143.907 45.351 143.873C45.3859 143.838 45.351 143.768 45.3162 143.733C45.2813 143.733 44.6887 143.28 44.0613 143.873C44.0264 143.907 44.0264 143.977 44.0613 144.012C44.0962 144.047 44.1659 144.047 44.2007 144.012C44.6887 143.768 45.2465 143.873 45.2465 143.907C45.2465 143.942 45.2465 143.942 45.2813 143.942Z" fill="#080435"/>
<path d="M44.411 144.988C44.3761 145.232 44.4807 145.441 44.655 145.476C44.8293 145.511 44.9687 145.337 45.0036 145.093C45.0384 144.849 44.9338 144.639 44.7596 144.605C44.5853 144.57 44.4458 144.744 44.411 144.988Z" fill="#080435"/>
<path d="M56.3677 241.092L56.0888 241.057C55.8797 241.022 55.7402 240.673 55.7402 240.22L57.7969 185.702L61.701 183.611L56.9603 239.976C56.9603 240.639 56.6814 241.127 56.3677 241.092Z" fill="#131F2D"/>
<path d="M115.833 241.092L116.112 241.057C116.321 241.022 116.461 240.673 116.461 240.22L114.404 185.702L110.5 183.611L115.241 239.976C115.241 240.639 115.52 241.127 115.833 241.092Z" fill="#131F2D"/>
<path d="M84.4972 193.232C104.095 193.232 119.983 191.015 119.983 188.282C119.983 185.548 104.095 183.332 84.4972 183.332C64.8991 183.332 49.0117 185.548 49.0117 188.282C49.0117 191.015 64.8991 193.232 84.4972 193.232Z" fill="#B8C1C9"/>
<path d="M119.983 186.016H49.0117V188.282H119.983V186.016Z" fill="#B8C1C9"/>
<path d="M84.4972 190.966C104.095 190.966 119.983 188.75 119.983 186.016C119.983 183.282 104.095 181.066 84.4972 181.066C64.8991 181.066 49.0117 183.282 49.0117 186.016C49.0117 188.75 64.8991 190.966 84.4972 190.966Z" fill="#D5D6DA"/>
<path d="M109.909 189.606C109.839 189.606 109.804 189.572 109.77 189.502C109.77 189.432 109.804 189.362 109.874 189.362C112.837 188.944 115.207 188.456 116.915 187.898C116.985 187.863 117.055 187.898 117.09 187.968C117.125 188.038 117.09 188.108 117.02 188.142C115.312 188.665 112.907 189.153 109.909 189.606Z" fill="#131F2D"/>
<path d="M55.0419 188.909C55.0071 188.909 55.0071 188.909 55.0419 188.909C54.8677 188.874 51.5213 188.142 50.1967 187.445C50.127 187.41 50.0921 187.341 50.127 187.271C50.1618 187.201 50.2315 187.166 50.3012 187.201C51.591 187.898 55.0419 188.63 55.0768 188.665C55.1465 188.665 55.1814 188.735 55.1814 188.805C55.1465 188.874 55.0768 188.909 55.0419 188.909Z" fill="#131F2D"/>
<path d="M53.3341 180.857C53.3341 180.857 57.5868 179.114 59.016 179.742C60.4452 180.369 61.8047 182.321 60.8286 182.112C59.8875 181.938 58.7371 181.31 58.7371 181.31C58.7371 181.31 61.1424 182.704 60.5846 183.192C60.0269 183.646 57.9354 182.426 57.9354 182.426C57.9354 182.426 60.6892 184.343 60.0269 184.622C59.3646 184.866 57.308 183.402 57.308 183.402C57.308 183.402 59.7829 185.284 59.016 185.563C58.2491 185.842 56.9594 183.994 56.4365 184.447C55.8788 184.901 54.5193 186.992 53.125 185.493L53.3341 180.857Z" fill="#FF7955"/>
<path d="M35.8358 181.066C40.6811 185.633 45.4218 186.504 53.1603 185.493L53.3346 180.857C47.7224 181.589 43.7834 178.382 40.5416 175.315C35.9404 170.957 34.5809 164.23 34.1975 161.197C34.1626 160.918 33.9883 160.674 33.7095 160.57C32.8729 160.221 30.7814 159.698 27.6093 160.674C27.3304 160.779 27.1213 161.058 27.1561 161.371C27.3653 167.158 29.7356 175.349 35.8358 181.066Z" fill="#FF7955"/>
<g opacity="0.3">
<path opacity="0.3" d="M36.7767 179.428C36.7419 179.428 36.707 179.428 36.6721 179.428C36.2538 179.393 35.8007 179.114 35.4521 178.696C34.8944 177.964 34.8247 177.023 35.3127 176.569C35.5218 176.395 35.7658 176.291 36.0447 176.325C36.463 176.36 36.9162 176.639 37.2647 177.057C37.8225 177.789 37.8922 178.731 37.4042 179.184C37.2647 179.358 37.0207 179.428 36.7767 179.428ZM36.0098 176.604C35.8355 176.604 35.6613 176.674 35.5567 176.779C35.1732 177.127 35.243 177.929 35.731 178.556C36.0098 178.905 36.3933 179.149 36.7419 179.184C36.951 179.219 37.1253 179.149 37.2647 179.009C37.6482 178.661 37.5785 177.859 37.0904 177.232C36.8116 176.883 36.4281 176.639 36.0796 176.604C36.0447 176.604 36.0447 176.604 36.0098 176.604Z" fill="#EC865C"/>
</g>
<path d="M61.596 186.295H76.0969C76.4106 186.295 76.6547 186.086 76.7592 185.772L79.757 176.116C79.8965 175.628 79.5827 175.14 79.0947 175.14H65.1515C64.524 175.14 63.9663 175.559 63.7572 176.221L60.9337 185.319C60.7942 185.807 61.108 186.295 61.596 186.295Z" fill="#131F2D"/>
<path d="M62.502 186.295H77.003C77.3167 186.295 77.5607 186.086 77.6653 185.772L80.6631 176.082C80.8025 175.593 80.4888 175.105 80.0007 175.105H66.0575C65.4301 175.105 64.8723 175.524 64.6632 176.186L61.8397 185.284C61.7003 185.807 62.0488 186.295 62.502 186.295Z" fill="#131F2D"/>
<path d="M72.6461 180.404C72.6461 180.02 72.2627 179.881 71.9141 179.881C71.5655 179.881 71.0078 180.299 71.0078 180.787C71.0078 181.345 71.4261 181.415 71.7747 181.415C72.1233 181.415 72.6461 180.857 72.6461 180.404Z" fill="#DAEBE8"/>
<path d="M57.2387 184.935H77.0033V186.295H56.8204C56.5764 186.295 56.3673 186.086 56.3673 185.842C56.3324 185.354 56.7507 184.935 57.2387 184.935Z" fill="#131F2D"/>
<path d="M63.5499 180.02L63.4453 179.986C63.4802 179.881 64.1773 177.092 64.6305 176.186C65.1185 175.28 65.6762 175.105 65.7111 175.071L65.7459 175.175C65.7459 175.175 65.1882 175.349 64.7351 176.221C64.247 177.127 63.5499 179.986 63.5499 180.02Z" fill="#366F90"/>
<path d="M61.3867 185.005V184.9C61.8747 184.9 61.9793 184.691 61.9793 184.691L63.0948 181.066L63.1993 181.101L62.0839 184.726C62.0839 184.726 61.9444 185.005 61.3867 185.005Z" fill="#366F90"/>
<g opacity="0.4">
<path d="M303.195 7.05465C303.195 7.05465 299.36 -0.892993 289.635 0.0830327C279.91 1.09392 281.06 9.04156 276.459 8.30954C271.823 7.57752 265.339 8.30954 263.979 13.2942C262.585 18.2789 256.346 15.5252 256.102 19.7778C255.858 23.9957 263.282 26.9935 271.823 23.2637C280.398 19.5338 284.546 26.1569 296.572 24.9717C308.598 23.7865 310.097 22.2876 317.208 23.0196C324.319 23.7517 324.145 18.523 320.938 15.0371C317.696 11.5513 304.589 11.8999 303.195 7.05465Z" fill="#EAEAEA"/>
</g>
<path d="M42.0393 52.7187C42.0393 52.7187 44.3748 47.8734 50.2658 48.5009C56.1568 49.0935 55.4596 53.9387 58.2831 53.4856C61.1066 53.0324 65.0107 53.4856 65.8822 56.5182C66.7188 59.5509 70.5183 57.8777 70.6577 60.4572C70.7972 63.0367 66.3005 64.8493 61.1066 62.5835C55.9128 60.3178 53.3681 64.3613 46.0828 63.6293C38.7626 62.8973 37.8563 61.991 33.5339 62.4441C29.2115 62.8973 29.3161 59.7252 31.2681 57.5988C33.2202 55.4376 41.2027 55.6468 42.0393 52.7187Z" fill="#EAEAEA"/>
<path d="M335.962 35.6382C335.962 35.6382 333.697 30.9672 328.015 31.5598C322.298 32.1524 322.995 36.8234 320.276 36.3702C317.557 35.9171 313.758 36.3702 312.956 39.2983C312.154 42.2264 308.459 40.6229 308.355 43.0978C308.215 45.5728 312.573 47.3505 317.592 45.1545C322.612 42.9584 325.052 46.8625 332.128 46.1654C339.204 45.4682 340.076 44.5967 344.259 45.015C348.442 45.4682 348.337 42.3658 346.455 40.3092C344.468 38.2526 336.764 38.4617 335.962 35.6382Z" fill="#EAEAEA"/>
<path d="M143.787 5.48607C143.787 5.48607 141.313 0.396788 135.108 1.02423C128.868 1.65168 129.6 6.77582 126.637 6.2878C123.674 5.79979 119.526 6.2878 118.62 9.49474C117.714 12.7017 113.74 10.9239 113.566 13.6429C113.426 16.3618 118.167 18.279 123.639 15.8738C129.147 13.4686 131.796 17.7212 139.535 16.9544C147.238 16.1875 148.214 15.2115 152.781 15.6995C157.347 16.1875 157.243 12.8063 155.151 10.5753C153.095 8.34443 144.694 8.55358 143.787 5.48607Z" fill="#EAEAEA"/>
</svg>
