<svg width="492" height="472" viewBox="0 0 492 472" fill="none" xmlns="http://www.w3.org/2000/svg">
<g opacity="0.5">
<path opacity="0.25" d="M85.4011 42.7503C85.4011 42.7503 240.999 -30.5175 299.862 14.7829C358.724 60.0833 242.714 151.338 297.087 138.045C353.581 124.233 416.183 154.547 413.939 203.213C410.843 270.322 286.115 307.179 310.325 306.961C362.257 306.504 389.552 324.346 356.781 354.712C313.567 394.758 187.374 429.58 165.013 404.562C142.653 379.533 200.414 323.38 151.568 334.316C37.8333 359.77 -40.4073 281.143 22.206 228.532C47.3095 207.439 125.29 167.892 79.4993 157.559C4.15763 140.548 -40.9788 98.1244 85.4011 42.7503Z" fill="#00A0AA"/>
<path opacity="0.2" d="M171.31 73.304C171.31 73.304 278.166 38.7108 312.549 72.9301C346.931 107.149 264.222 156.656 300.548 152.543C338.286 148.275 376.326 173.085 370.839 204.428C363.275 247.641 279.424 261.204 295.124 263.063C328.81 267.061 345.009 280.884 321.256 297.843C289.949 320.203 205.318 332.322 192.912 314.262C180.506 296.202 222.567 264.61 190.013 267.653C114.235 274.736 70.065 217.326 114.973 188.435C132.98 176.845 186.771 157.684 157.958 147.205C110.578 129.935 84.8507 98.7167 171.31 73.304Z" fill="#00969E"/>
<path opacity="0.2" d="M120.988 117.285C120.988 117.285 227.844 82.6922 262.227 116.912C296.609 151.131 213.9 200.637 250.225 196.525C287.964 192.256 326.004 217.067 320.517 248.409C312.953 291.622 229.102 305.186 244.802 307.044C278.488 311.043 294.687 324.866 270.934 341.825C239.627 364.184 154.996 376.304 142.59 358.244C130.184 340.184 172.245 308.592 139.691 311.624C63.9234 318.697 19.7429 261.298 64.6611 232.395C82.6679 220.805 136.46 201.645 107.647 191.166C60.2555 173.916 34.5286 142.698 120.988 117.285Z" fill="#00969E"/>
</g>
<path d="M324.809 158.183C324.809 158.183 343.97 152.294 343.751 132.593C343.544 112.893 321.183 111.428 321.183 111.428C321.183 111.428 312.476 146.073 324.809 158.183Z" fill="#AA5D27"/>
<path d="M294.656 116.683C294.656 116.683 263.131 154.101 288.899 168.215C299.466 174.01 307.176 170.541 304.308 182.017C301.441 193.492 298.801 195.725 305.451 197.854C315.135 200.949 342.4 205.685 333.08 189.338C317.515 162.067 338.005 121.72 317.681 119.508C299.404 117.514 299.279 104.979 294.656 116.683Z" fill="#FAB68B"/>
<path d="M484.852 256.873H339V353.913H484.852V256.873Z" fill="#D0C4B3"/>
<path d="M356.314 221H492L471.564 354H333L356.314 221Z" fill="#F2E9D5"/>
<path d="M232.258 153.779C232.258 153.779 265.549 204.532 297.968 195.891V207.491C297.968 207.491 253.455 225.178 234.378 203.223C215.301 181.269 232.258 153.779 232.258 153.779Z" fill="#FFFAEF"/>
<path d="M122.871 193.575C122.871 193.575 142.489 223.464 140.182 228.844C131.215 249.77 111.036 216.963 109.613 208.696C108.189 200.44 111.857 177.572 122.871 193.575Z" fill="#FAB68B"/>
<path d="M97.1623 158.868C97.1623 158.868 121.341 168.443 124.697 206.038C127.347 235.573 91.5411 184.987 97.1623 158.868Z" fill="#FFFAEF"/>
<path d="M59.9028 147.828C66.9383 147.828 72.6416 142.128 72.6416 135.096C72.6416 128.064 66.9383 122.364 59.9028 122.364C52.8674 122.364 47.1641 128.064 47.1641 135.096C47.1641 142.128 52.8674 147.828 59.9028 147.828Z" fill="#383A45"/>
<path d="M186.015 109.081C186.015 109.081 165.38 103.359 165.587 83.6581C165.795 63.9573 189.642 62.3164 189.642 62.3164C189.642 62.3164 198.349 96.9719 186.015 109.081Z" fill="#383A45"/>
<path d="M224.531 70.7284C224.531 70.7284 239.93 115.032 222.755 123.454C211.928 128.761 203.657 121.44 206.525 132.915C209.392 144.391 212.032 146.624 205.382 148.753C195.698 151.848 172.413 152.834 178.948 135.19C184.143 121.17 172.839 72.6186 193.162 70.4065C211.429 68.4125 219.897 59.0243 224.531 70.7284Z" fill="#FAB68B"/>
<path d="M182.53 135.397C182.53 135.397 164.97 140.247 157.291 163.406C149.613 186.565 153.208 303.69 153.208 303.69H233.506C233.506 303.69 245.351 170.904 230.867 151.494C216.382 132.084 182.53 135.397 182.53 135.397Z" fill="#FAB68B"/>
<path d="M72.4773 134.525C72.4773 134.525 53.4003 126.092 53.5873 108.406C53.7743 90.72 77.0491 89.1519 77.0491 89.1519C77.0491 89.1519 83.5328 123.662 72.4773 134.525Z" fill="#383A45"/>
<path d="M103.677 95.2272C103.677 95.2272 119.481 131.368 103.594 141.016C94.3466 146.634 87.7694 140.528 90.3463 150.819C92.9231 161.111 91.8009 163.5 85.8368 165.411C77.1503 168.183 68.9418 169.502 69.8042 152.637C70.6666 135.771 61.0969 96.2761 79.3427 94.2926C95.7286 92.5167 97.6612 84.9354 103.677 95.2272Z" fill="#FAB68B"/>
<path d="M75.5188 90.6785C75.5188 90.6785 94.9387 70.1157 105.994 85.1743C111.096 92.122 110.576 110.597 73.9914 100.139C73.9914 100.139 82.9273 121.367 70.3547 117.182C57.7822 112.986 56.6392 89.5361 75.5188 90.6785Z" fill="#383A45"/>
<path d="M73.9929 119.664C73.9929 119.664 68.9016 110.13 63.5297 114.139C58.1578 118.147 62.3555 127.484 66.7403 127.297C71.1251 127.11 73.6189 125.189 73.9929 119.664Z" fill="#FAB68B"/>
<path d="M66.2634 92.0078C66.2634 92.0078 61.7124 75.1421 63.7385 72.6601C65.7647 70.178 88.8836 64.3726 91.741 66.4705C94.5984 68.5683 96.3232 85.7247 95.9388 86.2959C95.5543 86.8671 70.9703 90.5331 66.2634 92.0078Z" fill="#FFFAEF"/>
<path d="M78.9375 72.4731L80.5896 85.33L85.5563 84.2188L83.8834 71.6111L78.9375 72.4731Z" fill="#F05857"/>
<path d="M88.8928 74.519L74.2109 77.0738L74.9694 81.6641L89.7032 78.9535L88.8928 74.519Z" fill="#F05857"/>
<path d="M69.8038 152.647C69.8038 152.647 54.0414 157.009 47.1525 177.79C40.2636 198.571 39.9727 303.7 39.9727 303.7H116.977C116.977 303.7 118.712 184.519 105.724 167.093C92.7357 149.666 69.8038 152.647 69.8038 152.647Z" fill="#FAB68B"/>
<path d="M72.6406 137.599C72.6406 137.599 80.0491 145.907 91.5722 144.412C91.5722 144.412 88.9745 144.588 90.3461 150.83C90.3461 150.83 75.0201 154.828 72.6406 137.599Z" fill="#E76650"/>
<path d="M93.986 157.133L92.895 182.141L66.9499 153.779C66.9499 153.779 50.6368 161.973 45.109 179.379C39.5812 196.784 38.75 303.69 38.75 303.69H119.484C119.484 303.69 114.507 188.227 112.024 177.997C109.541 167.768 99.3787 159.439 93.986 157.133Z" fill="#FFFAEF"/>
<path d="M81.1641 234.254L100.49 177.406L140.006 187.656L118.892 244.463L81.1641 234.254Z" fill="#383A45"/>
<path d="M185.193 96.6603C185.193 96.6603 183.5 78.5485 187.032 74.6955C190.565 70.8426 221.113 66.377 221.976 67.322C222.838 68.2671 228.886 49.7814 214.266 47.4031C191.397 43.6852 195.625 63.2302 184.747 63.6872C173.868 64.1441 154.801 86.6386 185.193 96.6603Z" fill="#383A45"/>
<path d="M184.992 98.6438C184.992 98.6438 179.319 88.0197 173.334 92.4854C167.349 96.951 172.025 107.357 176.909 107.139C181.803 106.931 184.566 104.813 184.992 98.6438Z" fill="#E76650"/>
<path d="M177.804 137.454L208.259 164.268L208.207 137.599C208.207 137.599 223.003 139.323 232.251 153.779C244.376 172.753 239.119 303.69 239.119 303.69H147.609C147.609 303.69 150.217 196.743 152.171 172.753C154.124 148.763 177.804 137.454 177.804 137.454Z" fill="#00A0AA"/>
<path d="M195.262 173.625L173.141 144.734L173.972 144.1L195.189 171.818L201.538 161.89L202.411 162.451L195.262 173.625Z" fill="white"/>
<path d="M220.975 165.452L209.836 161.256L210.2 160.28L219.53 163.79L215.125 144.526L216.133 144.297L220.975 165.452Z" fill="white"/>
<path d="M175.06 138.98C175.06 138.98 179.985 186.939 218.409 220.567C233.725 233.974 228.717 303.68 228.717 303.68H147.608C147.608 303.68 147.13 192.506 149.136 179.13C152.378 157.611 163.755 140.538 175.06 138.98Z" fill="#FFFAEF"/>
<path d="M213.609 138.98C213.609 138.98 240.022 169.118 218.41 215.011C215.199 221.823 226.151 303.69 226.151 303.69H239.128C239.128 303.69 242.287 193.835 242.287 183.429C242.287 173.023 237.019 144.412 213.609 138.98Z" fill="#FFFAEF"/>
<path d="M315.251 189.328C315.251 189.328 340.293 180.511 355.141 207.491C364.056 223.703 344.376 303.69 344.376 303.69H264.078C264.078 303.69 266.499 217.326 280.973 203.223C295.447 189.12 315.251 189.328 315.251 189.328Z" fill="#173CA2"/>
<path d="M16 313C16 313 44.3473 263.011 114.531 264.261C184.714 265.51 208.335 291.34 267.744 247.866C298.918 225.05 412.221 212.713 441 313H16Z" fill="#9AD4C8"/>
<path d="M477 313L453.43 354H48.2841L16 313H477Z" fill="#FFFAEF"/>
<path d="M144.978 256.873H8.03125V353.913H144.978V256.873Z" fill="#F2E9D5"/>
<path d="M474 334H7V354H474V334Z" fill="#D0C4B3"/>
<path d="M201.975 164.621L213.612 162.897L211.804 173.999L224.439 198.446L218.402 220.577C218.402 220.577 204.136 206.048 201.289 202.112L207.004 173.999L201.975 164.621Z" fill="#383A45"/>
<path d="M325.63 145.762C325.63 145.762 328.477 126.123 323.791 123.797C303.405 113.661 293.128 118.822 292.266 119.767C291.404 120.713 287.632 100.274 302.251 97.8962C325.121 94.1782 315.208 112.332 326.087 112.789C336.956 113.235 356.022 135.74 325.63 145.762Z" fill="#AA5D27"/>
<path d="M325.828 147.745C325.828 147.745 331.501 137.121 337.486 141.587C343.471 146.053 338.795 156.459 333.912 156.24C329.018 156.033 326.254 153.914 325.828 147.745Z" fill="#FAB68B"/>
<path d="M301.004 172.493C301.004 172.493 314.47 174.581 321.785 161.225C321.785 161.225 323.25 180.158 304.038 183.034C304.038 183.034 304.932 176.969 301.004 172.493Z" fill="#E76650"/>
<path d="M332.842 188.923C332.842 188.923 332.852 200.762 300.465 214.231C300.465 214.231 294.698 201.084 302.252 189.328C302.242 189.328 327.657 185.797 332.842 188.923Z" fill="#FAB68B"/>
<path d="M252.137 235.719C252.137 235.719 278.778 191.737 302.24 189.338L285.075 231.907C285.085 231.897 263.358 231.699 252.137 235.719Z" fill="#173CA2"/>
<path d="M301.43 116.06C301.43 116.06 319.8 119.487 324.008 126.31C328.216 133.133 322.554 149.781 324.601 150.798C326.647 151.816 329.536 140.413 333.796 136.155C338.056 131.887 343.501 107.72 301.43 116.06Z" fill="#AA5D27"/>
<path d="M289.003 284.758C289.003 284.758 267.879 284.758 267.38 296.13C267.016 304.376 285.927 299.733 299.477 293.606C313.026 287.479 295.466 288.486 289.003 284.758Z" fill="#FAB68B"/>
<path d="M334.575 189.328C334.575 189.328 347.252 246.976 321.784 266.085C299.684 282.66 283.215 286.762 283.215 286.762L287.558 296.119C287.558 296.119 329.172 289.005 350.743 272.628C372.314 256.25 363.024 231.585 360.988 215.768C358.962 199.962 334.575 189.328 334.575 189.328Z" fill="#FAB68B"/>
<path d="M304.93 274.258C304.93 274.258 311.715 291.882 318.198 291.446C324.869 290.989 354.898 281.113 364.727 254.132C371.439 235.719 366.93 196.068 332.839 188.923L325.825 220.577C325.825 220.577 341.078 228.657 334.969 244.463C328.859 260.269 304.93 274.258 304.93 274.258Z" fill="#173CA2"/>
<path d="M306.398 279.783C306.398 279.783 296.247 284.882 286.438 282.795C276.629 280.707 274.032 284.571 277.45 284.55C280.869 284.529 292.444 292.972 306.398 279.783Z" fill="#FAB68B"/>
<path d="M299.478 162.254C299.426 162.254 299.374 162.254 299.311 162.243C296.953 162.046 295.872 157.092 295.758 156.531L296.776 156.324C297.181 158.297 298.262 161.111 299.405 161.215C299.893 161.257 301.109 160.841 302.917 156.24L303.883 156.614C302.377 160.446 300.974 162.254 299.478 162.254Z" fill="#42394A"/>
<path d="M292.257 142.75C293.577 142.75 294.647 141.68 294.647 140.361C294.647 139.042 293.577 137.973 292.257 137.973C290.937 137.973 289.867 139.042 289.867 140.361C289.867 141.68 290.937 142.75 292.257 142.75Z" fill="#383A45"/>
<path d="M302.835 145.139C304.155 145.139 305.225 144.069 305.225 142.75C305.225 141.431 304.155 140.361 302.835 140.361C301.515 140.361 300.445 141.431 300.445 142.75C300.445 144.069 301.515 145.139 302.835 145.139Z" fill="#383A45"/>
<path d="M206.202 131.44C206.202 131.44 193.806 135.034 186.304 125.552L184.995 143.778L177.805 137.454C177.805 137.454 180.382 126.902 180.423 121.159C180.465 115.426 179.644 102.767 179.644 102.767C179.644 102.767 182.678 111.615 191.406 118.656C198.835 124.649 206.763 126.767 206.763 126.767L206.202 131.44Z" fill="#E76650"/>
<path d="M184.995 71.7876C184.995 71.7876 182.408 106.63 190.595 112.134C208.124 123.921 210.743 108.333 219.19 107.149C222.567 106.672 226.152 107.43 230.349 109.756C233.778 111.656 231.638 127.608 223.949 129.343C209.475 132.593 184.268 126.455 181.223 107.752C180.132 101.043 180.579 80.4904 180.579 80.4904C180.579 80.4904 179.997 67.0415 184.995 71.7876Z" fill="#383A45"/>
<path d="M291.28 156.292L288.391 148.41C288.319 148.213 288.371 147.984 288.537 147.839C288.703 147.693 288.932 147.672 289.119 147.766L293.41 149.978L297.296 138.938L298.273 139.281L294.189 150.881C294.137 151.027 294.034 151.141 293.888 151.193C293.743 151.245 293.587 151.245 293.462 151.172L289.825 149.303L292.257 155.929L291.28 156.292Z" fill="#42394A"/>
<path d="M302.836 136.27L311.564 140.86C311.564 140.86 312.478 131.908 302.836 136.27Z" fill="#AA5D27"/>
<path d="M288.328 132.489L298.137 133.528C298.137 133.528 295.674 124.867 288.328 132.489Z" fill="#AA5D27"/>
<path d="M285.085 149.209C286.371 149.209 287.413 148.168 287.413 146.883C287.413 145.598 286.371 144.557 285.085 144.557C283.8 144.557 282.758 145.598 282.758 146.883C282.758 148.168 283.8 149.209 285.085 149.209Z" fill="#F69D80"/>
<path d="M91.7405 135.449C91.6989 135.449 91.6678 135.449 91.6262 135.449C90.0676 135.345 88.9039 133.351 87.9688 129.187L88.987 128.958C90.0676 133.788 91.2418 134.38 91.6989 134.411C92.8627 134.483 94.3381 131.866 95.0447 129.976L96.0214 130.34C95.8136 130.869 94.0472 135.449 91.7405 135.449Z" fill="#42394A"/>
<path d="M99.9054 119.653C101.225 119.653 102.295 118.584 102.295 117.265C102.295 115.945 101.225 114.876 99.9054 114.876C98.5856 114.876 97.5156 115.945 97.5156 117.265C97.5156 118.584 98.5856 119.653 99.9054 119.653Z" fill="#383A45"/>
<path d="M89.089 120.411C90.4089 120.411 91.4789 119.342 91.4789 118.023C91.4789 116.703 90.4089 115.634 89.089 115.634C87.7692 115.634 86.6992 116.703 86.6992 118.023C86.6992 119.342 87.7692 120.411 89.089 120.411Z" fill="#383A45"/>
<path d="M96.1152 128.232L95.6269 127.318L100.687 124.617L96.4581 123.807C96.2503 123.766 96.084 123.6 96.0425 123.392L94.2969 114.108L95.3151 113.921L96.9984 122.852L102.318 123.88C102.537 123.922 102.703 124.098 102.734 124.316C102.765 124.534 102.661 124.752 102.464 124.856L96.1152 128.232Z" fill="#42394A"/>
<path d="M88.9244 111.439L79.5938 114.658C79.5938 114.648 80.0405 105.654 88.9244 111.439Z" fill="#383A45"/>
<path d="M104.986 110.078L95.125 109.621C95.125 109.621 98.876 101.438 104.986 110.078Z" fill="#383A45"/>
<path d="M106.007 127.131C107.293 127.131 108.335 126.089 108.335 124.804C108.335 123.52 107.293 122.478 106.007 122.478C104.722 122.478 103.68 123.52 103.68 124.804C103.68 126.089 104.722 127.131 106.007 127.131Z" fill="#F69D80"/>
<path d="M80.1634 126.57C81.4488 126.57 82.4909 125.528 82.4909 124.244C82.4909 122.959 81.4488 121.917 80.1634 121.917C78.878 121.917 77.8359 122.959 77.8359 124.244C77.8359 125.528 78.878 126.57 80.1634 126.57Z" fill="#F69D80"/>
<path d="M310.843 156.417C312.129 156.417 313.171 155.375 313.171 154.091C313.171 152.806 312.129 151.764 310.843 151.764C309.558 151.764 308.516 152.806 308.516 154.091C308.516 155.375 309.558 156.417 310.843 156.417Z" fill="#F69D80"/>
<path d="M220.788 96.3072C222.108 96.3072 223.178 95.2378 223.178 93.9186C223.178 92.5994 222.108 91.53 220.788 91.53C219.468 91.53 218.398 92.5994 218.398 93.9186C218.398 95.2378 219.468 96.3072 220.788 96.3072Z" fill="#383A45"/>
<path d="M208.007 99.0489C209.327 99.0489 210.397 97.9795 210.397 96.6603C210.397 95.3411 209.327 94.2717 208.007 94.2717C206.687 94.2717 205.617 95.3411 205.617 96.6603C205.617 97.9795 206.687 99.0489 208.007 99.0489Z" fill="#383A45"/>
<path d="M221.821 109.621L220.844 109.268L223.276 102.642L219.639 104.512C219.504 104.584 219.348 104.584 219.213 104.532C219.078 104.48 218.964 104.366 218.912 104.221L214.828 92.6205L215.805 92.2778L219.691 103.317L223.982 101.105C224.169 101.012 224.398 101.033 224.564 101.178C224.72 101.323 224.782 101.541 224.71 101.749L221.821 109.621Z" fill="#42394A"/>
<path d="M207.738 87.6043L198.937 92.0699C198.937 92.0595 198.158 83.0971 207.738 87.6043Z" fill="#383A45"/>
<path d="M224.684 84.4887L214.844 85.1845C214.844 85.1741 217.608 76.6063 224.684 84.4887Z" fill="#383A45"/>
<path d="M228.023 102.549C229.308 102.549 230.35 101.507 230.35 100.223C230.35 98.9378 229.308 97.8962 228.023 97.8962C226.737 97.8962 225.695 98.9378 225.695 100.223C225.695 101.507 226.737 102.549 228.023 102.549Z" fill="#F69D80"/>
<path d="M202.253 109.756C203.539 109.756 204.581 108.715 204.581 107.43C204.581 106.145 203.539 105.104 202.253 105.104C200.968 105.104 199.926 106.145 199.926 107.43C199.926 108.715 200.968 109.756 202.253 109.756Z" fill="#F69D80"/>
<path d="M328.416 151.048L327.449 150.664C329.008 146.759 330.681 144.858 332.572 144.827C332.582 144.827 332.592 144.827 332.613 144.827C335.294 144.827 337.06 148.836 337.133 149.012L336.177 149.428C335.751 148.431 334.276 145.876 332.613 145.876C332.603 145.876 332.603 145.876 332.593 145.876C331.2 145.886 329.756 147.673 328.416 151.048Z" fill="#42394A"/>
<path d="M321.806 122.842C321.806 122.842 315.073 144.734 326.524 140.361C337.985 135.979 332.311 119.778 321.806 122.842Z" fill="#AA5D27"/>
<path d="M218.804 117.493C217.308 117.493 215.905 115.696 214.398 111.854L215.365 111.48C217.173 116.091 218.42 116.506 218.877 116.455C220.124 116.351 221.183 113.11 221.506 111.563L222.524 111.771C222.41 112.332 221.329 117.285 218.97 117.483C218.908 117.493 218.856 117.493 218.804 117.493Z" fill="#F4EEDB"/>
<path d="M220.78 64.2167L219.741 64.1856C219.886 58.5879 218.691 54.735 216.198 52.7411C213.517 50.6017 210.182 51.4117 210.15 51.4221L209.891 50.4251C210.046 50.3836 213.746 49.4697 216.831 51.931C219.606 54.1327 220.936 58.266 220.78 64.2167Z" fill="#F4EEDB"/>
<path d="M216.851 67.4882C216.249 60.9143 214.222 56.7291 210.825 55.0363C205.588 52.44 198.699 56.6668 198.637 56.7187L198.086 55.8359C198.387 55.649 205.526 51.2561 211.282 54.1016C215.033 55.9606 217.256 60.4262 217.89 67.3843L216.851 67.4882Z" fill="#F4EEDB"/>
<path d="M180.236 103.93L179.197 103.92C179.27 97.7301 177.929 96.2242 177.119 95.8711C175.716 95.2688 173.898 97.0031 173.888 97.0239L173.16 96.2761C173.254 96.1827 175.488 94.0433 177.524 94.9157C179.415 95.7257 180.298 98.6751 180.236 103.93Z" fill="#42394A"/>
<path d="M193.161 70.3961C193.161 70.3961 192.62 87.0436 190.241 89.2037C186.646 92.4439 181.523 91.53 181.523 91.53C181.523 91.53 178.292 61.2051 193.161 70.3961Z" fill="#383A45"/>
<path d="M69.4928 123.942L68.4849 123.672C69.3577 120.38 69.2434 118.158 68.1524 117.234C66.9679 116.226 64.7027 116.891 63.9338 117.234L63.5078 116.288C63.6429 116.226 66.8951 114.814 68.8174 116.444C70.272 117.659 70.4902 120.183 69.4928 123.942Z" fill="#42394A"/>
<path d="M68.0493 186.752C67.9662 186.752 67.8831 186.732 67.8104 186.69C67.6545 186.607 67.5506 186.451 67.5402 186.275L65.4102 158.909L66.4492 158.826L68.5169 185.381L82.5233 177.447C82.6896 177.354 82.9078 177.364 83.0637 177.468L89.7448 181.871L89.1733 182.733L82.7623 178.506L68.3195 186.68C68.226 186.732 68.1429 186.752 68.0493 186.752Z" fill="#173CA1"/>
<path d="M95.3151 181.466L94.2969 181.258L96.0529 172.441C96.084 172.286 96.1776 172.161 96.3126 172.088C96.4477 172.016 96.614 172.005 96.7594 172.068L106.921 176.263L97.0711 161.506L97.9336 160.935L108.729 177.115C108.854 177.302 108.844 177.551 108.698 177.727C108.553 177.904 108.314 177.966 108.095 177.873L96.9361 173.262L95.3151 181.466Z" fill="#173CA1"/>
<path d="M231.089 266.615C231.089 266.615 244.43 275.214 246.082 277.28C249.262 281.258 238.082 277.717 238.082 277.717C238.082 277.717 250.623 288.528 244.035 295.049C237.448 301.571 215.648 283.252 215.648 278.568C215.638 273.874 223.815 263.665 231.089 266.615Z" fill="#FAB68B"/>
<path d="M81.787 211.687C81.787 211.687 88.7487 203.389 90.2865 202.455C93.2478 200.637 89.9644 208.343 89.9644 208.343C89.9644 208.343 98.2872 200.336 102.142 205.342C105.997 210.347 91.045 221.595 85.4549 221.584C82.265 221.574 79.1686 216.35 81.787 211.687Z" fill="#FAB68B"/>
<path d="M234.991 278.279L228.289 288.117L229.148 288.701L235.85 278.864L234.991 278.279Z" fill="#42394A"/>
<path d="M230.148 286.354L229.523 287.184L241.971 296.542L242.596 295.712L230.148 286.354Z" fill="#42394A"/>
<path d="M231.461 283.047L230.836 283.877L243.5 293.397L244.124 292.567L231.461 283.047Z" fill="#42394A"/>
<path d="M233.875 280.853L233.289 281.71L243.516 288.694L244.102 287.836L233.875 280.853Z" fill="#42394A"/>
<path d="M233.58 265.015C233.58 265.015 189.524 218.261 165.553 160.768C165.553 160.768 151.568 154.87 151.422 184.218C151.277 213.567 193.951 278.433 215.625 286.71C215.625 286.71 233.58 277.322 233.58 265.015Z" fill="#FFFAEF"/>
<path d="M205.972 281.767L205.691 280.77C205.795 280.739 216.456 277.509 228.53 259.584L229.392 260.166C217.069 278.444 206.419 281.632 205.972 281.767Z" fill="#0181B3"/>
<path d="M180.721 188.185C180.638 187.915 171.921 160.81 161.062 158.691L161.26 157.674C172.721 159.906 181.345 186.731 181.708 187.874L180.721 188.185Z" fill="#0181B3"/>
<path d="M106.006 178.839C106.006 178.839 110.453 196.296 101.559 216.828L131.411 224.918C131.411 224.918 146.196 191.55 140.004 184.53C133.811 177.52 106.006 178.839 106.006 178.839Z" fill="#FFFAEF"/>
<path d="M329.432 217.347C329.401 217.347 329.359 217.347 329.328 217.337L308.63 213.079L302.541 217.264L301.949 216.412L308.225 212.103C308.339 212.019 308.485 211.999 308.62 212.019L329.12 216.236C333.713 204.916 335.511 192.609 335.531 192.485L336.56 192.63C336.539 192.755 334.679 205.477 329.92 217.025C329.837 217.222 329.64 217.347 329.432 217.347Z" fill="white"/>
<path d="M285.087 214.751C284.973 214.751 284.848 214.709 284.754 214.637C284.63 214.533 284.557 214.377 284.567 214.211C285.014 204.386 293.545 192.745 293.908 192.246L294.74 192.859C294.657 192.973 286.458 204.179 285.648 213.557L294.532 211.365C294.74 211.313 294.968 211.396 295.083 211.573L296.693 213.93L295.841 214.512L294.428 212.456L285.212 214.73C285.17 214.741 285.128 214.751 285.087 214.751Z" fill="white"/>
<path d="M336.551 223.63L335.543 223.371C341.434 200.596 351.098 201.271 351.513 201.312L351.409 202.351L351.461 201.832L351.42 202.351C351.316 202.33 342.193 201.821 336.551 223.63Z" fill="white"/>
<path d="M333.548 250.528L332.582 250.133C340.136 231.772 333.725 219.809 333.663 219.694L334.577 219.196C334.639 219.31 341.279 231.71 333.548 250.528Z" fill="white"/>
<path d="M323.791 290.677C318.887 288.787 310.439 272.856 310.086 272.171L311 271.683C311.083 271.849 319.614 287.956 324.165 289.701L323.791 290.677Z" fill="white"/>
<path d="M267.847 232.105L266.891 231.689C267.13 231.149 272.824 218.334 279.661 212.134L280.357 212.902C273.696 218.946 267.909 231.97 267.847 232.105Z" fill="white"/>
<path d="M283.708 286.639L282.707 286.918L285.411 296.59L286.412 296.31L283.708 286.639Z" fill="#42394A"/>
<path d="M283.731 288.724L273.523 292.174L273.856 293.157L284.063 289.708L283.731 288.724Z" fill="#42394A"/>
<path d="M284.294 291.57L272.477 295.95L272.838 296.924L284.655 292.544L284.294 291.57Z" fill="#42394A"/>
<path d="M285.079 293.777L276.961 297.383L277.383 298.332L285.501 294.726L285.079 293.777Z" fill="#42394A"/>
<path d="M193.579 268.91C171.925 248.586 161.347 229.841 156.277 217.7C150.78 204.501 150.417 196.244 150.406 195.902L151.445 195.86C151.456 196.192 153.16 229.55 194.285 268.141L193.579 268.91Z" fill="#0181B3"/>
<path d="M221.695 252.086C204.498 238.138 186.907 200.803 186.73 200.43L187.676 199.993C187.853 200.367 205.35 237.484 222.36 251.286L221.695 252.086Z" fill="#0181B3"/>
<path d="M242.569 195.902L241.53 195.87C242.268 166.646 231.971 154.236 231.867 154.111L232.657 153.436C233.083 153.956 243.318 166.231 242.569 195.902Z" fill="#0181B3"/>
<path d="M236.593 260.321L236.063 259.428C267.017 241.181 307.872 251.068 318.668 254.183C278.872 224.284 234.307 251.836 233.85 252.117L233.289 251.234C233.757 250.933 280.607 221.968 321.525 255.097C321.723 255.253 321.775 255.534 321.65 255.752C321.525 255.97 321.266 256.074 321.027 255.991C320.559 255.835 271.973 239.457 236.593 260.321Z" fill="#3BC0CB"/>
<path d="M301.172 309.132V308.093C321.433 308.093 334.796 301.312 342.433 295.631C350.693 289.483 354.205 283.293 354.236 283.231L355.14 283.74C355.005 283.989 340.521 309.132 301.172 309.132Z" fill="#3BC0CB"/>
<path d="M278.563 310.783C278.293 310.638 250.986 296.701 203.46 305.082C181.328 308.997 166.979 304.832 158.833 300.657C149.959 296.109 146.406 290.698 146.25 290.47L147.123 289.909C147.258 290.127 161.586 311.417 203.284 304.064C251.184 295.61 278.781 309.724 279.051 309.869L278.563 310.783Z" fill="#3BC0CB"/>
<path d="M188.205 298.601C160.795 298.601 147.298 279.118 147.121 278.848L147.984 278.267C148.035 278.35 153.781 286.752 165.253 292.412C175.84 297.635 193.619 301.53 218.234 290.449L218.66 291.394C207.095 296.628 196.944 298.601 188.205 298.601Z" fill="#3BC0CB"/>
<path d="M40.4479 280.296H23.8231C20.4358 280.296 17.6719 277.523 17.6719 274.148C17.6719 270.762 20.4461 268 23.8231 268H40.4479C43.8352 268 46.5991 270.773 46.5991 274.148C46.5991 277.523 43.8248 280.296 40.4479 280.296Z" fill="#FFFAEF"/>
<path d="M129.305 280.296H104.721C101.334 280.296 98.5703 277.523 98.5703 274.148C98.5703 270.762 101.345 268 104.721 268H129.305C132.693 268 135.457 270.773 135.457 274.148C135.467 277.523 132.693 280.296 129.305 280.296Z" fill="#FFFAEF"/>
<path d="M78.5865 225.115C78.0358 218.24 73.6926 214.252 73.6406 214.211L74.3368 213.442C74.5238 213.619 79.0333 217.752 79.6152 225.032L78.5865 225.115Z" fill="#42394A"/>
<path d="M485 354H7V366H485V354Z" fill="#AEA598"/>
<path d="M299.355 117.846C295.001 106.807 300.945 103.598 301.204 103.463L301.682 104.387C301.464 104.501 296.342 107.347 300.321 117.472L299.355 117.846Z" fill="#42394A"/>
<path d="M304.746 118.033C300.724 108.437 309.328 104.667 309.421 104.626L309.827 105.581C309.504 105.716 302.096 108.998 305.712 117.628L304.746 118.033Z" fill="#42394A"/>
<path d="M309.097 118.199C308.816 115.79 309.263 113.91 310.427 112.622C312.006 110.878 314.292 110.898 314.386 110.898L314.375 111.937C314.386 111.927 312.453 111.937 311.196 113.329C310.24 114.388 309.887 115.987 310.136 118.075L309.097 118.199Z" fill="#42394A"/>
<path d="M66.947 153.779C66.947 153.779 34.2792 156.344 30.1334 212.186C29.0527 226.704 82.4912 225.614 83.4783 225.074C84.4654 224.534 82.3561 215.135 81.0573 211.874C79.7689 208.613 51.2573 211.874 51.2573 211.874C51.2573 211.874 65.0559 177.302 64.3701 174.84C63.6947 172.379 72.163 157.933 66.947 153.779Z" fill="#FFFAEF"/>
<path d="M32.3672 194.219C32.3672 194.219 55.164 195.798 54.3015 198.519C53.4391 201.24 49.6778 213.816 49.6778 213.816C49.6778 213.816 80.07 213.12 81.7949 211.677C83.5197 210.233 87.8006 223.423 85.4731 221.574C85.1094 221.283 37.313 234.587 30.1332 228.729C22.9533 222.872 32.3672 194.219 32.3672 194.219Z" fill="#FAB68B"/>
<path d="M56.7529 202.164C56.7529 202.164 31.4208 197.355 30.1116 194.801C28.8024 192.236 40.18 170.53 47.5469 164.476C47.5572 164.476 62.2494 180.739 56.7529 202.164Z" fill="#FFFAEF"/>
<path d="M57.4198 198.695L56.4327 198.353C62.0955 181.923 60.8279 172.815 58.7706 168.08C56.5678 163.012 53.0038 161.734 52.9727 161.724L53.3052 160.737C53.4506 160.789 56.9626 162.015 59.3732 166.917C61.7942 171.818 63.4047 181.31 57.4198 198.695Z" fill="#173CA1"/>
<path d="M88.6073 210.691L87.6875 211.174L91.3369 218.115L92.2567 217.632L88.6073 210.691Z" fill="#42394A"/>
<path d="M95.3364 206.546L89.1094 211.844L89.7829 212.635L96.0099 207.337L95.3364 206.546Z" fill="#42394A"/>
<path d="M98.2399 207.542L89.9531 214.602L90.6272 215.392L98.9139 208.332L98.2399 207.542Z" fill="#42394A"/>
<path d="M99.193 209.905L90.9531 216.484L91.6016 217.295L99.8415 210.716L99.193 209.905Z" fill="#42394A"/>
<path d="M30 471.995L30 357.995L18 357.995L18 471.995L30 471.995Z" fill="#AEA598"/>
<path d="M56 471.995L56 364.995H44L44 471.995H56Z" fill="#AEA598"/>
<path d="M454 471.995L454 357.995L442 357.995L442 471.995L454 471.995Z" fill="#AEA598"/>
<path d="M480 471.995V364.995H468V471.995H480Z" fill="#AEA598"/>
</svg>
