<svg width="352" height="343" viewBox="0 0 352 343" fill="none" xmlns="http://www.w3.org/2000/svg">
<path d="M312.128 287.248C305.706 294.018 299.599 298.38 294.818 301.835C238.319 342.387 171.419 330.556 157.216 327.695C136.242 323.437 95.6562 315.201 66.3421 280.687C21.9869 228.515 28.8967 146.296 63.3059 92.0296C69.5876 82.1186 102.845 27.0149 170.442 18.1858C211.343 12.8464 259.013 23.6298 293.562 52.5601C366.045 113.247 360.88 235.948 312.128 287.248Z" fill="#ECFAFB"/>
<path d="M257.25 257.25C304.608 209.892 304.608 133.108 257.25 85.75C209.892 38.3916 133.108 38.3916 85.75 85.75C38.3916 133.108 38.3916 209.892 85.75 257.25C133.108 304.608 209.892 304.608 257.25 257.25Z" fill="#B1D3D6"/>
<path d="M171.487 274.999C228.653 274.999 274.994 228.657 274.994 171.492C274.994 114.326 228.653 67.9848 171.487 67.9848C114.322 67.9848 67.9805 114.326 67.9805 171.492C67.9805 228.657 114.322 274.999 171.487 274.999Z" fill="#9EC5C9"/>
<path d="M171.488 280.164C111.569 280.164 62.8164 231.411 62.8164 171.492C62.8164 111.572 111.569 62.82 171.488 62.82C231.408 62.82 280.16 111.572 280.16 171.492C280.16 231.411 231.443 280.164 171.488 280.164ZM171.488 67.9849C114.43 67.9849 67.9813 114.399 67.9813 171.492C67.9813 228.55 114.395 274.999 171.488 274.999C228.546 274.999 274.995 228.585 274.995 171.492C274.995 114.399 228.581 67.9849 171.488 67.9849Z" fill="white"/>
<path d="M216.116 216.115C240.756 191.475 240.756 151.525 216.116 126.885C191.476 102.245 151.526 102.245 126.886 126.885C102.246 151.525 102.246 191.475 126.886 216.115C151.526 240.755 191.475 240.755 216.116 216.115Z" fill="#79BFC6"/>
<path d="M171.488 239.752C133.834 239.752 103.193 209.112 103.193 171.457C103.193 133.802 133.834 103.197 171.488 103.197C209.143 103.197 239.783 133.837 239.783 171.457C239.783 209.077 209.143 239.752 171.488 239.752ZM171.488 113.561C139.557 113.561 113.593 139.525 113.593 171.457C113.593 203.389 139.557 229.353 171.488 229.353C203.42 229.353 229.384 203.389 229.384 171.457C229.384 139.525 203.455 113.561 171.488 113.561Z" fill="white"/>
<path d="M195.286 177.131C198.387 164.001 190.256 150.844 177.126 147.743C163.996 144.643 150.839 152.774 147.739 165.904C144.638 179.033 152.769 192.191 165.899 195.291C179.029 198.391 192.186 190.261 195.286 177.131Z" fill="#2FACBB"/>
<path d="M178.285 174.588C179.06 171.306 177.028 168.018 173.747 167.244C170.466 166.469 167.178 168.501 166.403 171.782C165.628 175.063 167.66 178.351 170.941 179.126C174.222 179.901 177.51 177.869 178.285 174.588Z" fill="white"/>
<path d="M171.488 201.12C155.155 201.12 141.859 187.824 141.859 171.492C141.859 155.16 155.155 141.864 171.488 141.864C187.82 141.864 201.116 155.16 201.116 171.492C201.116 187.824 187.855 201.12 171.488 201.12ZM171.488 152.228C160.879 152.228 152.224 160.883 152.224 171.492C152.224 182.101 160.879 190.756 171.488 190.756C182.097 190.756 190.751 182.101 190.751 171.492C190.751 160.883 182.131 152.228 171.488 152.228Z" fill="white"/>
<path d="M287.208 56.0848L289.79 58.6673L192.286 156.172L189.703 153.589L287.208 56.0848Z" fill="#1177B2"/>
<path d="M191.554 147.377C193.02 145.912 200 152.856 198.534 154.357L172.71 174.668C171.767 175.4 170.511 174.179 171.279 173.237L191.554 147.377Z" fill="#05517B"/>
<path d="M289.723 58.7021L302.845 59.9934L284.838 78.0006C278.94 83.8984 270.704 86.8298 262.398 86.0271L289.723 58.7021Z" fill="#82D2FF"/>
<path d="M287.139 56.1545L285.848 43.033L267.84 61.0402C261.943 66.938 259.011 75.1739 259.814 83.4796L287.139 56.1545Z" fill="#82D2FF"/>
<g opacity="0.3">
<path opacity="0.5" d="M107.172 37.9728C106.788 38.3567 106.195 38.3218 105.846 37.9728C105.148 37.2748 104.38 36.5769 103.612 35.9138C103.228 35.5997 103.158 35.0065 103.473 34.6226C103.821 34.2387 104.415 34.1689 104.799 34.5179C105.601 35.2159 106.404 35.9487 107.172 36.6816C107.521 37.0305 107.521 37.554 107.241 37.9379C107.207 37.9379 107.172 37.9728 107.172 37.9728ZM99.5989 33.0173C98.7264 32.4938 97.854 31.9704 96.9466 31.5167C96.4929 31.2724 96.3185 30.714 96.5627 30.2604C96.807 29.8067 97.3654 29.6322 97.8191 29.8765C98.7613 30.3651 99.7035 30.8885 100.576 31.4818C101.03 31.761 101.134 32.3542 100.855 32.773C100.82 32.8079 100.82 32.8428 100.785 32.8777C100.541 33.1918 100.018 33.2616 99.5989 33.0173ZM92.4448 29.5275C91.5026 29.1785 90.5254 28.8994 89.5483 28.6551C89.0597 28.5155 88.7456 28.0269 88.8852 27.5034C89.0248 27.0149 89.5134 26.7008 90.0368 26.8404C91.0489 27.1196 92.0958 27.4336 93.1078 27.7826C93.5964 27.9571 93.8407 28.4806 93.6662 28.9691C93.6313 29.0738 93.5615 29.1785 93.5266 29.2483C93.2474 29.5275 92.8287 29.6671 92.4448 29.5275ZM84.6626 27.7477C83.6505 27.643 82.6385 27.5732 81.6265 27.5383C81.103 27.5383 80.6842 27.0847 80.7191 26.5612C80.7191 26.0377 81.1728 25.619 81.6963 25.6539C82.7432 25.6887 83.825 25.7585 84.872 25.8632C85.3954 25.933 85.7444 26.3867 85.7095 26.9102C85.6746 27.0847 85.6048 27.2592 85.5001 27.3987C85.3256 27.643 85.0116 27.7826 84.6626 27.7477ZM76.7059 27.7477C75.6938 27.8524 74.6818 28.0269 73.7047 28.2014C73.1812 28.3061 72.6926 27.9571 72.5879 27.4685C72.4832 26.9451 72.8322 26.4565 73.3208 26.3518C74.3677 26.1424 75.4146 25.9679 76.4965 25.8632C77.0199 25.7934 77.4736 26.1773 77.5434 26.7008C77.5783 26.9451 77.5085 27.2243 77.334 27.3987C77.1944 27.5732 76.9851 27.7128 76.7059 27.7477ZM68.9586 29.4926C68.0163 29.8067 67.0392 30.1906 66.1318 30.6093C65.6433 30.8187 65.1198 30.6093 64.9104 30.1208C64.701 29.6322 64.9104 29.1087 65.399 28.8994C66.3761 28.4806 67.3881 28.0618 68.3653 27.7128C68.8539 27.5383 69.3773 27.8175 69.5518 28.3061C69.6565 28.6202 69.5867 28.9691 69.3773 29.2134C69.2726 29.3181 69.133 29.4228 68.9586 29.4926ZM45.0186 54.7935C44.5301 54.654 44.216 54.1654 44.3556 53.6419C44.6348 52.6299 44.9488 51.5829 45.2978 50.5709C45.4723 50.0823 45.9958 49.8381 46.4843 50.0125C46.9729 50.187 47.2172 50.7105 47.0427 51.1991C46.6937 52.1413 46.4145 53.1185 46.1354 54.0956C46.1005 54.2352 46.0307 54.3399 45.9609 54.4446C45.7515 54.7586 45.3676 54.8982 45.0186 54.7935ZM61.7696 32.9126C60.8971 33.4361 60.0596 34.0293 59.257 34.6226C58.8382 34.9367 58.2449 34.832 57.9308 34.4481C57.6168 34.0293 57.7214 33.4361 58.1053 33.122C58.9429 32.4938 59.8502 31.8657 60.7576 31.3073C61.2112 31.0281 61.7696 31.1677 62.0488 31.6214C62.2582 31.9704 62.2233 32.3891 61.979 32.7032C61.9441 32.773 61.8394 32.8428 61.7696 32.9126ZM47.7407 47.116C47.287 46.8717 47.1125 46.3134 47.3568 45.8597C47.8454 44.9175 48.3688 43.9752 48.9621 43.1028C49.2413 42.6491 49.8345 42.5444 50.2533 42.8236C50.707 43.1028 50.8117 43.696 50.5325 44.1148C49.9741 44.9524 49.4856 45.8597 48.997 46.7321C48.9621 46.8019 48.9272 46.8368 48.8923 46.9066C48.648 47.2207 48.1594 47.3254 47.7407 47.116ZM55.5229 37.8681C54.8249 38.5661 54.127 39.3338 53.4639 40.1016C53.1149 40.4854 52.5217 40.5552 52.1378 40.2063C51.7539 39.8922 51.6841 39.2989 51.9982 38.915C52.6962 38.1124 53.429 37.3097 54.1619 36.5769C54.5457 36.2279 55.139 36.2279 55.488 36.5769C55.837 36.9259 55.837 37.4493 55.5578 37.8332C55.5578 37.7983 55.5578 37.8332 55.5229 37.8681Z" fill="#0360D9"/>
<path opacity="0.3" d="M44.9136 61.0053C45.0183 60.8658 45.0881 60.6913 45.123 60.4819C45.1579 59.9933 45.1928 59.5047 45.2626 59.0162C45.3324 58.4927 44.9485 58.039 44.4251 57.9692C43.9016 57.8994 43.4479 58.2833 43.3781 58.8068C43.3083 59.3302 43.2734 59.8188 43.2385 60.3423C43.2036 60.8657 43.5875 61.3194 44.111 61.3543C44.4251 61.3543 44.7042 61.2147 44.9136 61.0053Z" fill="#9EC5C9"/>
</g>
<g opacity="0.3">
<path opacity="0.3" d="M54.0912 88.086C54.3704 87.7371 54.3704 87.2136 54.0563 86.8646C53.7423 86.5156 53.4282 86.1318 53.1141 85.7479C52.8 85.364 52.2067 85.2942 51.788 85.6083C51.3692 85.9224 51.3343 86.5156 51.6484 86.9344C51.9625 87.3183 52.3114 87.7371 52.6604 88.086C53.0094 88.4699 53.6027 88.5048 53.9865 88.1558C54.0214 88.1558 54.0563 88.1209 54.0912 88.086Z" fill="#9EC5C9"/>
<path opacity="0.3" d="M108.498 88.1558C108.149 88.5397 107.555 88.5746 107.172 88.2256C106.788 87.8767 106.753 87.2834 107.102 86.8995C107.765 86.1667 108.393 85.3989 108.986 84.5963C109.3 84.1775 109.894 84.1077 110.312 84.4218C110.731 84.7359 110.801 85.3291 110.487 85.7479C110.208 86.0969 109.963 86.4459 109.684 86.7599C109.3 87.2485 108.916 87.7022 108.498 88.1558ZM112.022 81.8044C111.569 81.5602 111.394 80.9669 111.673 80.5132C112.162 79.6408 112.616 78.7334 113.034 77.861C113.244 77.3724 113.802 77.1979 114.291 77.4073C114.779 77.6167 114.954 78.1751 114.744 78.6636C114.326 79.6059 113.837 80.5481 113.314 81.4555C113.279 81.4904 113.244 81.5602 113.209 81.5951C112.93 81.944 112.441 82.0487 112.022 81.8044ZM104.833 91.7154C104.031 92.3785 103.193 93.0415 102.356 93.6348C101.937 93.9489 101.344 93.8442 101.03 93.4254C100.715 93.0066 100.82 92.4134 101.239 92.1342C102.042 91.5409 102.844 90.9477 103.612 90.2846C103.996 89.9356 104.589 90.0054 104.938 90.3893C105.217 90.7383 105.217 91.2269 104.938 91.5758C104.938 91.6456 104.868 91.6805 104.833 91.7154ZM115.373 74.4759C114.884 74.3363 114.605 73.8128 114.744 73.3243C115.024 72.382 115.268 71.4049 115.477 70.4278C115.582 69.9043 116.071 69.5902 116.594 69.6949C117.117 69.7996 117.432 70.2882 117.327 70.8116C117.117 71.8237 116.838 72.8706 116.559 73.8477C116.524 73.9524 116.454 74.092 116.385 74.1618C116.14 74.4759 115.722 74.6155 115.373 74.4759ZM97.9935 96.3219C97.0861 96.8105 96.109 97.2642 95.1318 97.6481C94.6433 97.8575 94.1198 97.6132 93.9104 97.1595C93.701 96.6709 93.9453 96.1474 94.399 95.9381C95.3063 95.5542 96.2137 95.1354 97.121 94.6817C97.5747 94.4375 98.1331 94.6119 98.3773 95.0656C98.5518 95.4146 98.5169 95.7985 98.2726 96.0777C98.2028 96.1824 98.0982 96.287 97.9935 96.3219ZM90.3159 99.3232C89.3039 99.6023 88.257 99.8117 87.2449 100.021C86.7215 100.126 86.2329 99.7768 86.1631 99.2534C86.0584 98.7299 86.4074 98.2413 86.9308 98.1715C87.908 97.997 88.8851 97.7876 89.8623 97.5085C90.3508 97.3689 90.8743 97.683 91.0139 98.1715C91.0837 98.4856 91.0139 98.7648 90.8394 99.0091C90.6649 99.1487 90.5253 99.2534 90.3159 99.3232ZM82.1498 100.579C81.1029 100.614 80.056 100.614 79.009 100.579C78.4856 100.545 78.1017 100.126 78.1017 99.6023C78.1366 99.0789 78.5554 98.695 79.0788 98.695C80.056 98.7299 81.068 98.7299 82.08 98.695C82.6035 98.6601 83.0223 99.0789 83.0572 99.6023C83.0572 99.8466 82.9874 100.056 82.8478 100.231C82.6733 100.44 82.429 100.545 82.1498 100.579ZM73.914 100.021C72.867 99.8466 71.855 99.6023 70.8429 99.3232C70.3544 99.1836 70.0403 98.6601 70.1799 98.1715C70.3195 97.683 70.8429 97.3689 71.3315 97.5085C72.2738 97.7527 73.2858 97.997 74.2629 98.1715C74.7864 98.2762 75.1005 98.7648 75.0307 99.2534C74.9958 99.4278 74.926 99.5674 74.8213 99.6721C74.6119 99.9164 74.2629 100.056 73.914 100.021ZM66.027 97.6481C65.0499 97.2293 64.1077 96.7756 63.2003 96.287C62.7466 96.0428 62.5722 95.4844 62.8164 95.0307C63.0607 94.5771 63.6191 94.4026 64.0728 94.6468C64.9452 95.1005 65.8526 95.5542 66.7599 95.9381C67.2485 96.1474 67.4578 96.7058 67.2485 97.1595C67.2136 97.2293 67.1787 97.334 67.1089 97.3689C66.8646 97.683 66.4109 97.8226 66.027 97.6481ZM58.8381 93.5999C58.2099 93.1462 57.5818 92.6926 56.9885 92.204C56.7791 92.0295 56.5697 91.855 56.3603 91.6805C55.9765 91.3316 55.9067 90.7383 56.2556 90.3544C56.6046 89.9705 57.1979 89.9007 57.5818 90.2497C57.7911 90.4242 58.0005 90.5987 58.175 90.7383C58.7334 91.192 59.3267 91.6456 59.9199 92.0644C60.3387 92.3785 60.4434 92.9369 60.1293 93.3905L60.0944 93.4254C59.7803 93.8093 59.222 93.914 58.8381 93.5999Z" fill="#9EC5C9"/>
<path opacity="0.3" d="M117.781 66.2401C117.886 66.1005 117.99 65.926 117.99 65.7166C118.025 65.1931 118.06 64.7046 118.06 64.1811C118.06 63.6576 117.676 63.2388 117.153 63.2039C116.629 63.2039 116.21 63.5878 116.176 64.1113C116.176 64.5999 116.141 65.0884 116.106 65.577C116.071 66.1005 116.455 66.5541 116.978 66.589C117.327 66.6239 117.606 66.4843 117.781 66.2401Z" fill="#9EC5C9"/>
</g>
<path d="M107.24 54.0955C107.205 53.921 107.066 53.7814 106.857 53.7465L101.552 53.0834C100.505 50.8151 99.0743 48.7212 97.3294 46.8716L98.6555 41.7067C98.6904 41.5323 98.6206 41.3229 98.481 41.2182L93.1417 37.6935C93.0021 37.5888 92.7927 37.5888 92.6182 37.7284L88.3956 41.0088C85.9876 40.1363 83.475 39.6827 80.9972 39.6129L78.2752 35.0413C78.1705 34.8668 77.996 34.797 77.8215 34.8319L71.5399 36.1231C71.3654 36.158 71.2258 36.2976 71.1909 36.507L70.5279 41.8114C68.2595 42.8584 66.1656 44.2892 64.3161 46.0341L59.1512 44.708C58.9767 44.6731 58.7673 44.7429 58.6626 44.8825L55.1379 50.2218C55.0332 50.3614 55.0332 50.5708 55.1728 50.7453L58.4532 54.9679C57.5808 57.3759 57.1271 59.8885 57.0573 62.3663L52.4857 65.0883C52.3112 65.193 52.2414 65.3675 52.2763 65.542L53.5675 71.8236C53.6024 71.9981 53.742 72.1377 53.9514 72.1726L59.2559 72.8356C60.3028 75.104 61.7336 77.1978 63.4785 79.0474L62.1524 84.2123C62.1175 84.3868 62.1873 84.5962 62.3269 84.7009L67.6662 88.2256C67.8058 88.3303 68.0152 88.3303 68.1897 88.1907L72.4124 84.9103C74.8203 85.7827 77.3329 86.2364 79.8107 86.3062L82.5327 90.8778C82.6374 91.0523 82.8119 91.1221 82.9864 91.0872L89.268 89.796C89.4425 89.7611 89.5821 89.6215 89.617 89.4121L90.28 84.1076C92.5484 83.0607 94.6423 81.6299 96.4919 79.885L101.657 81.2111C101.831 81.246 102.041 81.1762 102.145 81.0366L105.67 75.6972C105.775 75.5576 105.775 75.3483 105.635 75.1738L102.355 70.9511C103.227 68.5432 103.681 66.0305 103.751 63.5528L108.322 60.8308C108.497 60.7261 108.567 60.5516 108.532 60.3771L107.24 54.0955Z" fill="#9EC5C9"/>
<path d="M84.7303 67.7057C82.1129 70.1137 78.0299 69.9392 75.6219 67.3218C74.4703 66.0655 73.8421 64.4253 73.9468 62.6804C74.0166 60.9704 74.7495 59.3651 76.0058 58.2135C78.6231 55.8056 82.7062 55.98 85.1141 58.5974C87.3127 60.9704 87.3476 64.5649 85.3933 67.0078C85.1839 67.252 84.9746 67.4963 84.7303 67.7057ZM75.4474 62.7502C75.3776 64.0763 75.8662 65.3327 76.7387 66.3098C78.5883 68.299 81.6942 68.4386 83.7182 66.589C85.7074 64.7394 85.847 61.6335 83.9974 59.6094C82.1478 57.6202 79.0419 57.4806 77.0178 59.3302C76.8434 59.5047 76.6689 59.6792 76.5293 59.8537C75.8662 60.6912 75.4823 61.6684 75.4474 62.7502Z" fill="white"/>
<path d="M92.5117 72.9753C92.8607 72.5565 93.1748 72.1029 93.4539 71.6492C93.5586 71.5096 93.6284 71.37 93.7331 71.2304C94.1868 70.4976 94.5707 69.7647 94.8848 68.9621V68.9272C94.8848 68.8923 94.9197 68.8574 94.9197 68.8225C94.9545 68.7527 94.9545 68.7178 94.9894 68.648C95.0592 68.5084 94.9894 68.3339 94.8848 68.2292C94.8499 68.1943 94.8149 68.1943 94.7801 68.1594C94.5707 68.0896 94.3613 68.1943 94.2915 68.3688C93.9076 69.3808 93.419 70.3231 92.8258 71.2304C89.8944 75.6973 84.9738 78.1053 80.0183 78.0355C77.2613 78.0006 74.4695 77.1979 71.9569 75.5577C71.5381 75.2786 71.1193 74.9645 70.7006 74.6504C68.0134 72.4867 66.1638 69.4506 65.4659 66.0306C64.6632 62.0872 65.3961 58.0739 67.6295 54.6888C72.2012 47.7442 81.5538 45.7899 88.4984 50.3615C88.9172 50.6407 89.336 50.9548 89.7199 51.2689C91.4299 52.6648 92.8258 54.4097 93.768 56.3988C93.8029 56.4337 93.8378 56.5035 93.8727 56.5384C93.9774 56.6431 94.1519 56.6431 94.2566 56.5733C94.4311 56.4686 94.5358 56.2592 94.4311 56.0848C93.419 53.9909 91.9533 52.1762 90.1735 50.7105C89.7548 50.3615 89.336 50.0474 88.8823 49.7682C81.5887 44.9872 71.7475 47.0462 66.9665 54.3399C64.6632 57.8645 63.8606 62.0872 64.6981 66.24C65.431 69.8345 67.3853 73.0102 70.212 75.2786C70.6308 75.6275 71.0844 75.9416 71.5381 76.2557C75.0628 78.559 79.2854 79.3616 83.4383 78.5241C87.0676 77.7214 90.2084 75.802 92.5117 72.9753Z" fill="white"/>
<g opacity="0.3">
<path opacity="0.3" d="M146.604 28.6201C146.778 28.4107 146.778 28.1316 146.639 27.9222C146.36 27.5034 146.08 27.1195 145.766 26.7357C145.557 26.4914 145.208 26.4565 144.964 26.631C144.719 26.8403 144.685 27.1893 144.859 27.4336C145.138 27.8175 145.417 28.2014 145.697 28.5852C145.871 28.8644 146.255 28.8993 146.499 28.7248C146.499 28.6899 146.569 28.655 146.604 28.6201Z" fill="#9EC5C9"/>
<path opacity="0.5" d="M143.708 25.235C143.499 25.4444 143.115 25.4793 142.906 25.235C142.347 24.6767 141.719 24.1183 141.091 23.5948C140.951 23.4901 140.812 23.3855 140.672 23.2808C140.428 23.0714 140.358 22.7224 140.567 22.4781C140.777 22.2338 141.126 22.164 141.37 22.3734C141.51 22.4781 141.649 22.5828 141.789 22.7224C142.452 23.2459 143.08 23.8391 143.673 24.4324C143.883 24.6418 143.883 24.9908 143.708 25.2001V25.235ZM138.229 21.6406C137.392 21.152 136.519 20.6983 135.612 20.2795C135.333 20.14 135.193 19.8259 135.333 19.5118C135.472 19.2326 135.821 19.093 136.101 19.2326C137.043 19.6514 137.95 20.1051 138.857 20.6634C139.137 20.8379 139.206 21.1869 139.067 21.4661C139.067 21.501 139.032 21.501 139.032 21.5359C138.788 21.7104 138.474 21.7802 138.229 21.6406ZM132.855 19.2675C131.913 18.9883 130.971 18.7789 129.993 18.6045C129.679 18.5347 129.47 18.2555 129.505 17.9414C129.575 17.6273 129.854 17.4179 130.168 17.4528C131.18 17.6273 132.192 17.8716 133.169 18.1508C133.483 18.2555 133.658 18.5696 133.553 18.8836C133.518 18.9534 133.483 19.0232 133.448 19.093C133.344 19.2675 133.099 19.3373 132.855 19.2675ZM127.062 18.2904C126.085 18.2555 125.108 18.2555 124.131 18.3602C123.817 18.3951 123.537 18.1508 123.502 17.8367C123.468 17.5226 123.712 17.2434 124.026 17.2085C125.038 17.1387 126.085 17.1038 127.097 17.1387C127.411 17.1387 127.655 17.4179 127.655 17.732C127.655 17.8716 127.585 17.9763 127.516 18.081C127.411 18.2206 127.271 18.2904 127.062 18.2904ZM121.199 18.744C120.257 18.9534 119.28 19.1977 118.372 19.5118C118.058 19.6165 117.744 19.442 117.64 19.1628C117.535 18.8487 117.709 18.5347 117.989 18.43C118.966 18.1159 119.978 17.8367 120.955 17.6273C121.269 17.5575 121.583 17.7669 121.653 18.081C121.688 18.2555 121.653 18.43 121.548 18.5696C121.443 18.6394 121.339 18.744 121.199 18.744ZM115.65 20.6285C114.778 21.0473 113.906 21.5359 113.068 22.0593C112.789 22.2338 112.44 22.164 112.265 21.8849C112.091 21.6057 112.161 21.2567 112.44 21.0822C113.312 20.5238 114.22 20.0353 115.127 19.5816C115.406 19.442 115.755 19.5816 115.895 19.8608C115.999 20.0702 115.964 20.3144 115.825 20.4889C115.79 20.5587 115.72 20.5936 115.65 20.6285ZM110.695 23.8042C109.962 24.4324 109.229 25.0954 108.566 25.8283C108.357 26.0726 107.973 26.0726 107.764 25.8632C107.519 25.6538 107.519 25.2699 107.729 25.0606C108.427 24.2928 109.194 23.5948 109.962 22.9318C110.206 22.7224 110.59 22.7573 110.765 23.0016C110.939 23.211 110.939 23.525 110.765 23.7344C110.765 23.7693 110.73 23.8042 110.695 23.8042ZM104.344 30.8187C104.064 30.6791 103.96 30.2952 104.134 30.016C104.553 29.2483 105.041 28.4805 105.565 27.7477C105.635 27.643 105.705 27.5383 105.809 27.4336C105.984 27.1544 106.368 27.1195 106.612 27.294C106.856 27.4685 106.926 27.8524 106.751 28.0967C106.682 28.2014 106.612 28.3061 106.542 28.4107C106.054 29.1087 105.6 29.8416 105.181 30.5744C105.181 30.6093 105.146 30.6442 105.111 30.6442C104.902 30.8885 104.588 30.9583 104.344 30.8187Z" fill="#0360D9"/>
</g>
<g opacity="0.3">
<path opacity="0.3" d="M145.244 58.1785C144.581 58.9463 143.883 59.714 143.15 60.3771C142.906 60.5865 142.557 60.5865 142.347 60.3422C142.138 60.0979 142.138 59.7489 142.382 59.5395C143.08 58.8765 143.743 58.1785 144.371 57.4457C144.581 57.2014 144.93 57.1665 145.174 57.3759C145.418 57.5504 145.453 57.9342 145.244 58.1785ZM146.221 55.9102C145.942 55.7357 145.872 55.3867 146.047 55.1075C146.57 54.3049 147.059 53.4673 147.477 52.5949C147.617 52.3157 147.966 52.1761 148.245 52.3157C148.524 52.4553 148.664 52.8043 148.524 53.0834C148.071 53.9908 147.582 54.8632 147.024 55.7357C147.024 55.7706 146.989 55.7706 146.989 55.7706C146.814 56.0149 146.465 56.0498 146.221 55.9102ZM140.812 62.3314C140.009 62.9246 139.137 63.483 138.264 63.9716C137.985 64.1112 137.636 64.0414 137.462 63.7622C137.322 63.483 137.392 63.134 137.671 62.9595C138.509 62.5059 139.311 61.9475 140.114 61.3891C140.358 61.2146 140.742 61.2495 140.917 61.5287C141.091 61.7381 141.056 62.0522 140.917 62.2267C140.917 62.2616 140.847 62.2965 140.812 62.3314ZM148.943 50.6406C148.629 50.5359 148.489 50.2218 148.594 49.9077C148.908 49.0004 149.152 48.0582 149.362 47.1159C149.432 46.8018 149.746 46.5924 150.06 46.6622C150.374 46.732 150.583 47.0461 150.513 47.3602C150.304 48.3373 150.025 49.3145 149.711 50.2916C149.676 50.3614 149.641 50.4312 149.606 50.4661C149.432 50.6406 149.187 50.7104 148.943 50.6406ZM135.542 65.2977C134.6 65.6816 133.658 65.9956 132.681 66.2748C132.367 66.3446 132.053 66.1701 131.983 65.8561C131.913 65.542 132.087 65.2279 132.402 65.1581C133.344 64.9138 134.251 64.5997 135.124 64.2159C135.403 64.1112 135.752 64.2507 135.891 64.5299C135.961 64.7393 135.926 64.9487 135.822 65.1232C135.717 65.193 135.647 65.2628 135.542 65.2977ZM129.714 66.903C128.702 67.0426 127.69 67.1473 126.678 67.1822C126.364 67.1822 126.085 66.9379 126.085 66.6238C126.085 66.3097 126.329 66.0305 126.643 66.0305C127.621 65.9956 128.563 65.9258 129.54 65.7863C129.854 65.7514 130.168 65.9607 130.203 66.2748C130.238 66.4493 130.168 66.5889 130.063 66.7285C129.994 66.7983 129.854 66.8681 129.714 66.903ZM123.642 67.0426C122.63 66.9379 121.618 66.7983 120.641 66.5889C120.327 66.5191 120.117 66.205 120.187 65.891C120.257 65.5769 120.571 65.3675 120.885 65.4373C121.827 65.6467 122.77 65.7863 123.747 65.891C124.061 65.9259 124.305 66.205 124.27 66.5191C124.27 66.6238 124.201 66.7285 124.131 66.8332C124.026 67.0077 123.852 67.0775 123.642 67.0426Z" fill="#9EC5C9"/>
<path opacity="0.3" d="M150.828 44.6382C150.898 44.5684 150.933 44.4288 150.967 44.3241C151.002 43.8355 151.037 43.3469 151.037 42.8584C151.037 42.5443 150.793 42.2651 150.479 42.2651C150.165 42.2651 149.886 42.5094 149.886 42.8235C149.886 43.2771 149.851 43.7657 149.816 44.2194C149.781 44.5335 150.025 44.8126 150.339 44.8475C150.514 44.8824 150.723 44.7777 150.828 44.6382Z" fill="#9EC5C9"/>
</g>
<path d="M143.848 36.0883C143.813 35.9487 143.708 35.879 143.603 35.8441L140.044 35.3904C139.346 33.8898 138.403 32.459 137.217 31.2375L138.089 27.7827C138.124 27.678 138.054 27.5384 137.95 27.4686L134.355 25.1304C134.251 25.0606 134.111 25.0606 134.006 25.1304L131.18 27.329C129.574 26.7357 127.899 26.4216 126.224 26.3867L124.409 23.3157C124.34 23.211 124.235 23.1412 124.095 23.1761L119.908 24.0486C119.768 24.0835 119.698 24.1882 119.663 24.2929L119.21 27.8525C117.709 28.5504 116.278 29.4927 115.057 30.6792L111.602 29.8067C111.497 29.7718 111.358 29.8416 111.288 29.9463L108.95 33.5408C108.88 33.6455 108.88 33.7851 108.95 33.8898L111.148 36.7165C110.555 38.3218 110.241 39.9969 110.206 41.672L107.135 43.4867C107.03 43.5565 106.961 43.6612 106.995 43.8008L107.868 47.9885C107.903 48.1281 108.007 48.1979 108.112 48.2328L111.672 48.6865C112.37 50.1871 113.312 51.6179 114.498 52.8393L113.626 56.2942C113.591 56.3989 113.661 56.5385 113.766 56.6083L117.36 58.9464C117.465 59.0162 117.604 59.0162 117.709 58.9464L120.536 56.7479C122.141 57.3411 123.816 57.6552 125.491 57.6901L127.306 60.7611C127.376 60.8658 127.48 60.9356 127.62 60.9007L131.808 60.0283C131.947 59.9934 132.017 59.8887 132.052 59.784L132.506 56.2244C134.006 55.5264 135.437 54.5842 136.659 53.3977L140.113 54.2701C140.218 54.305 140.358 54.2352 140.428 54.1305L142.766 50.536C142.835 50.4314 142.835 50.2918 142.766 50.1871L140.567 47.3603C141.16 45.755 141.474 44.0799 141.509 42.4048L144.58 40.5902C144.685 40.5204 144.755 40.4157 144.72 40.2761L143.848 36.0883Z" fill="#9EC5C9"/>
<path d="M128.807 45.2664C127.934 46.069 126.818 46.4529 125.666 46.418C124.479 46.3831 123.433 45.8596 122.63 44.9872C120.99 43.2074 121.129 40.4505 122.874 38.8103C124.654 37.1701 127.446 37.3097 129.051 39.0894C129.854 39.9619 130.238 41.0786 130.203 42.2302C130.168 43.1725 129.819 44.0798 129.226 44.8127C129.121 44.9523 128.981 45.1268 128.807 45.2664ZM123.467 44.2194C124.061 44.8476 124.828 45.2315 125.701 45.2664C126.573 45.3013 127.376 44.9872 128.004 44.4288C128.632 43.8355 129.016 43.0678 129.051 42.1954C129.086 41.3229 128.772 40.5203 128.214 39.8921C127.027 38.566 124.968 38.4962 123.642 39.6827C123.537 39.7874 123.433 39.8921 123.328 40.0317C122.351 41.2182 122.386 43.0329 123.467 44.2194Z" fill="white"/>
<path d="M134.249 48.9307C134.493 48.6515 134.703 48.3375 134.912 48.0234C135.331 47.3952 135.68 46.7322 135.924 46.0342C135.924 45.9993 135.959 45.9644 135.959 45.9295C136.064 45.6852 135.959 45.4409 135.785 45.2664C135.75 45.2315 135.68 45.1966 135.61 45.1618C135.296 45.0571 134.982 45.1966 134.877 45.5107C134.633 46.1738 134.319 46.7671 133.935 47.3603C133.9 47.3952 133.9 47.4301 133.865 47.465C132.958 48.826 131.736 49.9079 130.306 50.6756C129.538 51.0944 128.7 51.3736 127.828 51.583C127.828 51.583 127.828 51.583 127.793 51.583C127.758 51.583 127.758 51.583 127.723 51.583C125.176 52.1064 122.558 51.6178 120.395 50.187C120.115 50.0125 119.836 49.8032 119.592 49.5938C117.847 48.1979 116.661 46.2436 116.207 44.0101C115.683 41.4626 116.172 38.8452 117.603 36.6816C119.034 34.5179 121.232 33.0173 123.78 32.4938C126.327 31.9704 128.945 32.4589 131.108 33.8897C131.387 34.0642 131.667 34.2736 131.911 34.483C133.028 35.3904 133.935 36.5071 134.528 37.7983C134.563 37.8681 134.633 37.9379 134.668 38.0077C134.842 38.1473 135.087 38.1822 135.296 38.0775C135.575 37.9379 135.715 37.5889 135.575 37.3097C134.877 35.8789 133.865 34.5877 132.644 33.6106C132.365 33.3663 132.051 33.1569 131.736 32.9475C129.294 31.3422 126.397 30.7838 123.535 31.3771C120.674 31.9704 118.231 33.6455 116.626 36.0883C115.02 38.5312 114.462 41.4277 115.055 44.2893C115.579 46.7671 116.905 48.9656 118.859 50.536C119.138 50.7803 119.452 50.9897 119.766 51.1991C124.513 54.2701 130.759 53.2232 134.249 48.9307Z" fill="white"/>
<path d="M75.9076 322.669C75.9076 322.669 75.2445 326.159 74.9305 329.649C74.7909 331.01 75.8378 332.197 77.1988 332.266C81.8053 332.511 91.6814 332.964 95.241 332.86C95.7645 332.825 96.1135 332.301 95.939 331.813C95.7645 331.394 95.4504 331.045 95.0665 330.87L78.8041 323.228L75.9076 322.669Z" fill="url(#paint0_linear_126_23)"/>
<path d="M75.418 320.61L75.8716 324.798C75.8716 324.798 78.7333 326.159 80.6875 324.694L79.5359 320.017L75.418 320.61Z" fill="url(#paint1_linear_126_23)"/>
<path d="M76.5342 241.776C76.3248 242.858 74.8591 296.391 80.338 320.436C80.4427 320.82 80.2334 321.239 79.8495 321.378C78.977 321.727 77.2321 322.216 75.1732 322.285C74.545 322.285 73.9517 321.867 73.7773 321.273C72.2069 315.69 64.634 287.737 63.8663 261.075C62.9938 231.307 63.8663 260.063 63.8663 260.063L64.7038 241.672L76.5342 241.776Z" fill="#1D5BB8"/>
<path d="M57.0959 324.31C57.0959 324.31 56.0839 326.054 55.1067 330.766C54.9322 331.603 55.5255 332.441 56.363 332.511C57.8986 332.685 60.2367 332.894 62.1212 332.894C62.9936 332.894 63.6567 332.162 63.5869 331.289C63.3775 329.579 62.7843 326.752 60.7951 324.519L57.0959 324.31Z" fill="url(#paint2_linear_126_23)"/>
<path d="M56.293 318.9L57.4097 325.252C57.4097 325.252 58.5613 326.124 60.8297 325.531L60.3411 318.691L56.293 318.9Z" fill="url(#paint3_linear_126_23)"/>
<path d="M53.8493 243.207C48.8938 271.405 54.1982 313.038 56.0478 321.204C56.1525 321.692 56.5713 322.076 57.0599 322.181C57.9323 322.321 59.3282 322.46 60.7241 322.076C61.2127 321.937 61.5617 321.518 61.5617 321.029C61.8758 314.469 61.806 274.057 66.3078 258.143C66.5521 257.341 67.0406 256.643 67.7386 256.154L76.2537 250.222L76.9865 240.485L53.8493 243.207Z" fill="#154FA7"/>
<path d="M84.2113 189.953C70.1824 189.604 54.6877 193.338 54.6877 193.338C50.2906 217.697 53.4663 245.859 53.4663 245.859C64.2846 248.826 76.6036 244.324 76.6036 244.324C78.4531 234.204 87.1427 205.587 87.1427 205.587C94.0176 204.82 99.671 202.865 104.347 200.318C100.858 196.165 99.2174 190.93 98.5194 187.824C93.5639 189.29 88.5037 190.093 84.2113 189.953Z" fill="#1177B2"/>
<path d="M125.81 169.712C124.449 168.037 122.704 168.805 122.704 168.805C120.54 177.495 109.652 184.474 98.5195 187.824C99.2175 190.93 100.823 196.165 104.347 200.318C122.913 190.093 125.81 169.712 125.81 169.712Z" fill="url(#paint4_linear_126_23)"/>
<path d="M125.495 170.131C125.635 170.585 123.96 171.282 122.983 169.398C122.948 168.491 122.459 164.652 122.983 163.919C125.879 160.045 131.463 155.229 131.463 155.229C132.405 156.172 131.603 157.079 131.603 157.079L128.881 159.871C129.439 160.883 130.102 161.755 130.416 162.977C130.66 163.919 130.486 164.896 129.997 165.734C129.509 166.571 128.846 167.688 128.252 168.526C127.136 170.131 125.495 170.131 125.495 170.131Z" fill="url(#paint5_linear_126_23)"/>
<path d="M127.73 161.616L125.252 163.675L124.449 165.734L126.613 168.177C126.613 168.177 127.381 164.094 127.939 163.186C128.497 162.314 128.218 161.895 127.73 161.616Z" fill="url(#paint6_linear_126_23)"/>
<path d="M59.9229 207.018L54.6883 193.373C54.6883 193.373 41.4969 202.167 39.2285 213.404C41.7063 213.614 46.2081 214.312 50.6052 216.58C51.5823 211.241 59.9229 207.018 59.9229 207.018Z" fill="#004D79"/>
<path d="M71.2293 219.895C71.2293 219.895 56.4326 228.061 51.5469 220.907C50.5349 219.407 50.2906 217.941 50.5698 216.545C46.1726 214.277 41.6708 213.579 39.1931 213.369C38.4951 216.754 38.8092 220.384 40.7984 224.048C49.3483 240.031 73.1487 223.49 73.1487 223.49L71.2293 219.895Z" fill="url(#paint7_linear_126_23)"/>
<path d="M70.1115 178.437L65.5398 191.314C65.47 191.523 65.5398 191.768 65.7492 191.872C66.9707 192.57 71.3329 194.56 76.6374 191.244C77.1957 190.895 77.5796 190.337 77.6494 189.674L79.1849 178.507L70.1115 178.437Z" fill="url(#paint8_linear_126_23)"/>
<path d="M79.9211 166.571C79.9211 166.571 84.737 175.854 84.0739 179.553C83.4109 183.287 77.3387 182.938 72.0691 179.867L68.4746 169.887L79.9211 166.571Z" fill="url(#paint9_linear_126_23)"/>
<path d="M72.3466 175.017C72.556 174.912 72.6607 174.668 72.5211 174.458C72.1372 173.865 71.4044 172.609 71.195 171.562C71.195 171.562 70.3225 171.003 73.4633 170.271C76.6041 169.538 81.2455 168.421 82.2576 165.804C83.2347 163.221 80.7919 156.695 76.7437 161.825C76.6041 162.035 76.2901 162.035 76.1505 161.825C75.4874 160.953 73.8123 159.173 71.4044 160.22C69.1709 161.197 68.8917 162.837 68.8917 163.675C68.8917 163.919 68.6823 164.094 68.438 164.059C67.3213 163.815 64.5993 163.605 63.3081 166.397C62.2262 168.7 62.9242 169.991 63.5174 170.62C63.7268 170.829 63.6221 171.178 63.343 171.248C62.6101 171.457 61.633 172.085 61.7028 173.83C61.8075 176.238 64.4946 176.064 65.2623 175.959C65.4019 175.959 65.5066 175.994 65.6113 176.099C66.2744 176.831 69.2058 179.937 72.4164 180.356C72.6956 180.391 72.905 180.112 72.8352 179.868L71.4742 175.819C71.4044 175.645 71.5091 175.435 71.6835 175.331L72.3466 175.017Z" fill="url(#paint10_linear_126_23)"/>
<path d="M72.9046 175.575C72.9046 175.575 69.4497 173.132 69.1706 175.156C68.8914 177.18 72.2765 178.123 73.9865 177.355L72.9046 175.575Z" fill="url(#paint11_linear_126_23)"/>
<path d="M68.228 232.808L76.2894 204.68C76.3941 204.366 76.6384 204.122 76.9874 204.087C78.4531 203.912 82.6757 203.424 87.5614 203.04C93.4592 202.551 100.264 202.132 104.347 202.481C104.941 202.516 105.29 203.144 105.01 203.668C102.672 208.379 93.1451 227.468 88.3641 233.715C88.1896 233.924 87.9453 234.029 87.701 234.029L68.9958 233.854C68.4374 233.854 68.0536 233.331 68.228 232.808Z" fill="url(#paint12_linear_126_23)"/>
<path d="M70.1465 226.003C70.1465 226.003 69.0298 221.396 69.4834 219.756C69.9371 218.116 70.8095 216.022 73.741 216.475C76.6724 216.929 80.1273 218.185 80.1273 218.185C80.1273 218.185 79.9528 220.314 77.7193 219.616L79.0803 220.698C79.0803 220.698 78.8709 222.408 77.0214 221.501L78.3126 222.932C78.3126 222.932 77.5099 224.327 76.114 223.42C74.7181 222.513 74.0899 226.561 70.1465 226.003Z" fill="url(#paint13_linear_126_23)"/>
<path d="M87.002 211.415C87.002 212.706 88.0489 213.788 89.375 213.788C90.6662 213.788 91.7481 212.741 91.7481 211.415C91.7481 210.124 90.7011 209.042 89.375 209.042C88.0489 209.042 87.002 210.124 87.002 211.415Z" fill="#91B3FA"/>
<path d="M77.1948 212.986L78.835 207.437C79.0444 206.739 79.6028 206.25 80.2658 206.111C85.3958 205.029 99.4945 204.819 99.6341 204.819V204.191C99.0409 204.191 85.3609 204.436 80.1611 205.517C79.2538 205.692 78.5209 206.39 78.2418 207.297L76.6016 212.846L77.1948 212.986Z" fill="#BDD0FB"/>
<path d="M286.546 171.143C286.755 170.724 287.418 170.794 287.523 171.248C288.012 172.958 289.163 175.959 291.571 177.041C291.711 177.11 291.816 177.145 291.92 177.215C292.025 176.901 292.025 176.517 291.781 176.098C291.013 174.947 292.374 173.376 292.374 173.376C292.374 173.376 292.479 174.772 293.526 175.645C294.433 176.413 294.887 178.088 294.258 179.449C292.932 184.544 290.978 191.279 298.656 196.234C306.298 201.155 317.117 186.917 317.117 186.917L311.742 203.842C311.742 203.842 303.471 209.949 293.875 201.364C284.278 192.78 290.629 180.321 290.629 180.321C290.629 180.321 283.301 177.355 286.546 171.143Z" fill="url(#paint14_linear_126_23)"/>
<path d="M318.442 161.93C318.442 161.93 316.208 151.984 327.62 154.601C327.62 154.601 333.169 153.694 333.448 158.929C333.448 158.929 337.007 161.267 334.39 165.804C334.39 165.804 344.999 161.721 349.606 171.003C354.212 180.286 349.989 185.416 345.523 186.742C345.523 186.742 349.117 188.557 347.407 192.64C345.697 196.723 337.042 199.62 331.947 194.629C331.947 194.629 317.43 196.549 317.709 186.289C317.709 186.289 310.939 181.926 318.058 173.446C325.177 164.966 318.442 161.93 318.442 161.93Z" fill="url(#paint15_linear_126_23)"/>
<path d="M317.815 185.032C320.119 184.334 326.784 183.078 333.136 188.941C334.217 189.918 334.636 191.453 334.252 192.849C332.542 199.131 328.04 217.662 331.984 225.688C331.984 225.688 325.039 233.366 317.466 227.189C317.466 227.189 314.081 212.357 309.614 205.866C306.543 201.364 314.535 189.011 316.524 186.009C316.838 185.521 317.292 185.172 317.815 185.032Z" fill="#1177B2"/>
<path d="M324.13 172.539C324.13 172.539 327.516 182.136 327.76 186.358C327.76 186.358 324.026 188.068 320.501 185.172C320.501 185.172 320.117 175.61 319.594 173.9L324.13 172.539Z" fill="url(#paint16_linear_126_23)"/>
<path d="M319.454 159.487C319.454 159.487 310.59 171.876 315.895 175.505C321.199 179.1 327.516 170.305 327.516 170.305C327.516 170.305 329.575 163.5 327.411 161.197C325.248 158.894 319.454 159.487 319.454 159.487Z" fill="url(#paint17_linear_126_23)"/>
<path d="M323.536 156.521C323.536 156.521 319.453 157.498 318.894 159.313C318.336 161.162 324.652 162.872 326.432 162.942L327.863 170.375C327.863 170.375 332.086 163.396 330.41 159.348C328.77 155.334 323.536 156.521 323.536 156.521Z" fill="url(#paint18_linear_126_23)"/>
<path d="M325.771 169.363C325.771 169.363 329.226 165.385 330.587 167.967C331.948 170.585 327.481 172.539 325.946 171.248L325.771 169.363Z" fill="url(#paint19_linear_126_23)"/>
<path d="M308.637 258.283C308.672 258.946 307.486 264.285 306.823 267.147C306.578 268.299 306.753 269.485 307.311 270.497L329.576 307.977C329.855 308.431 330.03 308.92 330.169 309.443C330.588 311.188 331.426 315.515 330.972 319.424L329.82 321.832L334.811 320.715L335.892 307.349L334.497 306.477C333.275 305.744 332.333 304.627 331.775 303.301C329.75 298.415 324.76 285.957 323.469 279.885C322.003 272.975 314.361 267.391 314.361 267.391L315.722 264.216L308.637 258.283Z" fill="url(#paint20_linear_126_23)"/>
<path d="M340.358 316.108C340.358 316.108 337.671 311.851 337.357 310.176C337.043 308.501 336.17 305.569 334.495 306.477C334.495 306.477 333.728 314.538 333.972 317.679C334.251 320.82 330.412 320.715 330.412 320.715C330.412 320.715 329.365 320.855 328.598 321.622C328.074 322.146 328.458 323.088 329.191 323.123C330.447 323.193 332.436 323.228 334.53 322.809C335.263 322.669 335.787 322.041 335.856 321.308L336.415 312.025L339.8 316.318L340.358 316.108Z" fill="url(#paint21_linear_126_23)"/>
<path d="M321.933 264.25C321.933 264.25 322.735 297.787 322.84 302.533C322.945 307.279 322.072 317.853 317.326 320.994L319.42 322.53C319.42 322.53 322.002 320.331 324.55 316.074C327.412 311.293 328.249 310.42 328.249 310.42L327.307 308.501C326.888 307.663 326.783 306.686 326.958 305.779C328.005 300.788 331.425 284.177 332.367 280.617C333.484 276.395 333.554 270.741 329.715 266.03C325.806 261.319 321.933 264.25 321.933 264.25Z" fill="url(#paint22_linear_126_23)"/>
<path d="M326.33 324.065C326.469 324.065 326.609 323.961 326.609 323.821C326.783 322.704 327.446 318.237 327.97 317.051C328.598 315.725 330.622 310.141 327.97 309.652C327.97 309.652 321.409 319.249 320.118 320.575C318.861 321.867 317.256 321.029 317.256 321.029C317.256 321.029 316.035 321.378 315.093 322.565C314.639 323.123 315.058 323.96 315.79 323.96L320.223 323.995C321.514 323.995 322.665 323.228 323.154 322.041C323.922 320.087 325.283 317.225 326.818 315.969L326.016 323.751C326.016 323.891 326.155 324.065 326.33 324.065Z" fill="url(#paint23_linear_126_23)"/>
<path d="M316.419 223.559C316.419 223.559 317.431 226.735 315.895 231.97L306.368 265.193C306.228 265.716 306.508 266.274 306.996 266.449C309.858 267.461 319.21 270.357 331.983 269.485C332.611 269.45 333.17 268.996 333.309 268.368C334.147 264.564 337.008 251.652 337.602 249C339.87 238.88 342.383 227.957 331.32 221.361C326.225 223.525 321.479 224.816 316.419 223.559Z" fill="#1D5BB8"/>
<path d="M334.043 190.162C334.043 190.162 344.861 199.166 347.549 211.45C350.236 223.734 331.74 225.06 331.74 225.06C331.74 225.06 329.227 222.268 326.261 223.246C323.295 224.258 326.017 218.36 329.506 218.36C332.996 218.36 331.391 221.152 336.311 218.883C341.127 216.72 344.094 209.984 331.81 199.759C331.112 199.166 330.518 198.398 330.204 197.561C327.796 191.593 329.716 187.65 334.043 190.162Z" fill="url(#paint24_linear_126_23)"/>
<path d="M266.303 282.013H262.43V323.786H266.303V282.013Z" fill="#7D97F4"/>
<path d="M281.277 324.589H247.461V322.355C247.461 322.216 247.601 322.076 247.74 322.076H280.998C281.137 322.076 281.277 322.216 281.277 322.355V324.589Z" fill="#7D97F4"/>
<path d="M287.662 280.478C287.662 282.921 285.673 284.875 283.265 284.875H246.901C244.458 284.875 242.504 282.886 242.504 280.478V276.499C242.504 274.057 244.493 272.102 246.901 272.102H283.265C285.707 272.102 287.662 274.091 287.662 276.499V280.478Z" fill="#7D97F4"/>
<path d="M230.116 311.118C230.116 311.118 217.622 316.492 218.355 322.111C218.355 322.111 231.267 319.633 233.571 315.934C235.874 312.235 234.618 310.106 234.618 310.106L230.116 311.118Z" fill="url(#paint25_linear_126_23)"/>
<path d="M233.187 304.941L233.815 310.42C233.92 311.258 233.466 312.06 232.663 312.339C232.279 312.479 231.756 312.584 231.093 312.584C230.151 312.584 229.313 311.956 229.034 311.048L227.812 306.616L233.187 304.941Z" fill="url(#paint26_linear_126_23)"/>
<path d="M260.477 262.959C260.477 262.959 237.514 261.912 226.102 268.543C214.691 275.208 226.695 307.175 226.695 307.175C226.695 307.175 229.697 307.803 233.989 305.534C233.989 305.534 227.847 282.118 238.526 278.035C250.496 273.463 262.884 274.58 262.884 274.58L260.581 263.657L260.477 262.959Z" fill="#154FA7"/>
<path d="M220.868 319.633C223.485 319.075 231.233 315.864 232.384 315.899C233.571 315.934 235.211 317.714 235.211 317.714C235.211 317.714 235.49 318.691 234.653 320.052C232.663 321.622 228.371 324.449 223.381 324.763C219.716 325.007 217.483 323.542 216.227 322.111C217.343 321.064 219.123 320.017 220.868 319.633Z" fill="url(#paint27_linear_126_23)"/>
<path d="M223.416 324.763C228.406 324.449 232.698 321.587 234.688 320.052C234.129 320.994 233.047 322.111 230.988 323.262C225.928 326.124 217.588 325.705 215.947 325.042C214.621 324.519 215.04 323.297 216.227 322.111C217.518 323.542 219.716 325.007 223.416 324.763Z" fill="url(#paint28_linear_126_23)"/>
<path d="M238.002 314.852C237.828 315.515 236.013 317.435 234.931 318.516C234.443 319.04 233.71 319.249 233.012 319.11C232.558 319.005 232.07 318.865 231.616 318.621C230.953 318.272 230.744 317.435 231.093 316.771L233.78 311.921L238.002 314.852Z" fill="url(#paint29_linear_126_23)"/>
<path d="M283.229 261.005C283.229 261.005 285.218 275.208 279.425 278.14C273.632 281.036 260.929 282.956 256.532 290.319C252.17 297.682 244.283 312.165 237.129 316.318C237.129 316.318 233.046 314.992 231.859 312.968C231.859 312.968 240.34 290.633 243.899 285.224C246.97 280.513 251.437 273.743 257.823 270.811C259.638 269.974 259.778 268.054 259.464 266.065L258.87 262.471L283.229 261.005Z" fill="#1D5BB8"/>
<path d="M229.523 244.882C237.654 247.185 241.283 224.327 241.248 223.769L253.707 238.321C253.707 238.321 246.273 251.373 235.071 252.769C232.245 253.118 229.837 252.629 227.812 251.687C229.278 249.314 229.627 246.906 229.523 244.882Z" fill="#004D79"/>
<path d="M214.446 237.414C217.971 235.948 221.007 238.879 221.007 238.879C224.531 242.474 227.288 244.289 229.522 244.917C229.627 246.906 229.312 249.314 227.812 251.757C223.45 249.768 220.867 245.685 219.82 243.66C219.436 242.928 218.564 242.614 217.831 242.997C217.063 243.346 216.296 243.905 216.261 244.673C216.156 246.138 214.411 246.243 214.376 245.685C214.376 245.126 215.737 242.195 215.737 242.195C215.737 242.195 211.654 244.812 210.084 245.789C208.513 246.801 207.152 245.126 207.152 245.126C207.152 245.126 210.921 238.879 214.446 237.414Z" fill="url(#paint30_linear_126_23)"/>
<path d="M280.088 214.381C280.088 214.381 269.165 206.948 242.817 220.418C242.817 220.418 240.095 223.873 241.387 227.747C242.643 231.621 258.312 252.629 258.94 262.505C258.94 262.505 269.654 268.822 283.543 262.575C283.473 262.54 288.15 236.506 280.088 214.381Z" fill="#1177B2"/>
<path d="M257.335 204.854L261.662 213.299C262.081 214.137 262.011 215.149 261.418 215.882C260.232 217.382 257.754 219.372 253.531 218.08C252.275 217.696 251.298 216.684 251.019 215.393L248.785 205.971L257.335 204.854Z" fill="url(#paint31_linear_126_23)"/>
<path d="M288.186 243.905C288.919 238.775 275.344 228.794 275.344 228.794L280.09 214.381C280.09 214.381 306.019 232.877 300.54 247.988C299.772 250.151 298.586 251.722 297.19 252.839C294.433 247.22 290.734 244.882 288.186 243.905Z" fill="#004D79"/>
<path d="M269.237 245.336C269.237 245.336 284.592 249.628 287.803 244.952C288.012 244.638 288.152 244.289 288.187 243.905C290.734 244.882 294.468 247.22 297.19 252.839C289.896 258.562 275.833 252.141 272.029 250.221C271.401 249.907 270.668 249.837 270.005 250.047C268.644 250.466 266.306 251.129 264.979 251.059C263.06 250.954 261.001 257.899 257.721 256.119C257.721 256.154 259.186 244.289 269.237 245.336Z" fill="url(#paint32_linear_126_23)"/>
<path d="M251.821 191.035C251.681 191.139 245.993 201.085 243.097 206.145C242.224 207.681 242.887 209.67 244.527 210.368L245.784 210.891C247.494 211.624 251.193 212.252 252.624 211.066L261.767 201.399C261.767 201.434 254.892 188.382 251.821 191.035Z" fill="url(#paint33_linear_126_23)"/>
<path d="M264.351 198.817C265.467 198.189 266.828 196.897 265.781 194.664C264.7 192.361 262.606 192.186 261.245 192.326C260.686 192.396 260.198 192.047 260.023 191.523C259.919 191.209 259.709 190.965 259.221 190.895C258.558 190.79 258.174 190.127 258.348 189.499C258.662 188.278 258.627 186.637 256.673 185.451C253.183 183.357 249.938 186.393 249.03 189.08C248.123 191.732 252.032 193.826 254.509 194.245C256.394 194.559 257.336 196.758 257.65 197.77C257.755 198.084 257.72 198.468 257.511 198.747L254.719 202.97C255.487 203.947 256.15 204.959 256.813 205.971C257.057 205.692 257.266 205.482 257.441 205.308C258.662 204.191 260.791 204.784 261.698 205.063C261.978 205.168 262.292 205.133 262.571 204.994C263.548 204.505 265.467 203.109 263.897 200.457C263.583 199.829 263.792 199.131 264.351 198.817Z" fill="url(#paint34_linear_126_23)"/>
<path d="M255.836 207.681C255.836 207.681 257.616 203.109 259.64 203.353C261.664 203.598 263.164 205.692 260.547 207.855C257.337 210.577 255.836 207.681 255.836 207.681Z" fill="url(#paint35_linear_126_23)"/>
<path d="M249.624 255.107C249.589 255.107 249.554 255.107 249.554 255.107L213.68 255.072C212.807 255.072 212.074 254.339 212.074 253.467C212.074 252.594 212.807 251.862 213.68 251.862L249.554 251.896C250.427 251.896 251.16 252.629 251.16 253.502C251.125 254.374 250.462 255.072 249.624 255.107Z" fill="#154FA7"/>
<path d="M181.365 222.547H211.237C213.436 222.547 215.46 223.804 216.402 225.828L230.222 255.142H193.09C191.66 255.142 190.403 254.269 189.88 252.943L179.166 225.828C178.538 224.222 179.69 222.547 181.365 222.547Z" fill="#378C92"/>
<path d="M202.445 237.553C203.108 239.577 202.619 241.532 201.363 241.916C200.141 242.299 198.606 241.008 197.943 238.984C197.28 236.96 197.768 235.006 199.025 234.622C200.246 234.238 201.781 235.529 202.445 237.553Z" fill="white"/>
<path d="M186.216 332.092C186.007 332.092 185.832 332.057 185.623 331.987C184.855 331.673 184.506 330.8 184.82 330.068L216.438 258.876C216.752 258.143 217.659 257.794 218.427 258.108C219.195 258.422 219.543 259.295 219.229 260.028L187.612 331.219C187.368 331.778 186.809 332.092 186.216 332.092Z" fill="#91B3FA"/>
<path d="M221.847 332.092C221.254 332.092 220.696 331.778 220.451 331.219L188.834 260.028C188.52 259.295 188.869 258.422 189.636 258.108C190.404 257.794 191.277 258.143 191.626 258.876L223.243 330.068C223.557 330.8 223.208 331.673 222.44 331.987C222.266 332.057 222.057 332.092 221.847 332.092Z" fill="#91B3FA"/>
<path d="M284.14 332.092C283.93 332.092 283.756 332.057 283.547 331.987C282.779 331.673 282.43 330.8 282.744 330.068L314.361 258.876C314.675 258.143 315.583 257.794 316.351 258.108C317.118 258.422 317.467 259.295 317.153 260.028L285.536 331.219C285.257 331.778 284.733 332.092 284.14 332.092Z" fill="#91B3FA"/>
<path d="M319.769 332.092C319.176 332.092 318.617 331.778 318.373 331.219L286.756 260.028C286.442 259.295 286.791 258.422 287.558 258.108C288.326 257.794 289.199 258.143 289.548 258.876L321.165 330.068C321.479 330.8 321.13 331.673 320.362 331.987C320.153 332.057 319.944 332.092 319.769 332.092Z" fill="#91B3FA"/>
<path d="M323.468 256.677C323.538 256.224 323.433 255.735 323.154 255.351C322.875 254.967 322.491 254.758 322.072 254.758H178.188C177.63 254.758 177.106 255.072 176.792 255.596C176.478 256.119 176.443 256.782 176.688 257.34L178.258 261.109C178.607 261.982 179.375 262.54 180.247 262.54H321.095C321.898 262.54 322.561 261.912 322.735 261.04L323.468 256.677Z" fill="#91B3FA"/>
<defs>
<linearGradient id="paint0_linear_126_23" x1="74.8899" y1="327.749" x2="95.9568" y2="327.749" gradientUnits="userSpaceOnUse">
<stop stop-color="#09005D"/>
<stop offset="1" stop-color="#1A0F91"/>
</linearGradient>
<linearGradient id="paint1_linear_126_23" x1="75.3822" y1="322.64" x2="80.6922" y2="322.691" gradientUnits="userSpaceOnUse">
<stop stop-color="#FEBBBA"/>
<stop offset="1" stop-color="#FF928E"/>
</linearGradient>
<linearGradient id="paint2_linear_126_23" x1="55.0579" y1="328.607" x2="63.5738" y2="328.607" gradientUnits="userSpaceOnUse">
<stop stop-color="#09005D"/>
<stop offset="1" stop-color="#1A0F91"/>
</linearGradient>
<linearGradient id="paint3_linear_126_23" x1="56.2465" y1="322.185" x2="60.831" y2="322.229" gradientUnits="userSpaceOnUse">
<stop stop-color="#FEBBBA"/>
<stop offset="1" stop-color="#FF928E"/>
</linearGradient>
<linearGradient id="paint4_linear_126_23" x1="98.5539" y1="184.315" x2="125.683" y2="184.573" gradientUnits="userSpaceOnUse">
<stop stop-color="#FEBBBA"/>
<stop offset="1" stop-color="#FF928E"/>
</linearGradient>
<linearGradient id="paint5_linear_126_23" x1="119.683" y1="179.968" x2="101.086" y2="221.213" gradientUnits="userSpaceOnUse">
<stop stop-color="#FEBBBA"/>
<stop offset="1" stop-color="#FF928E"/>
</linearGradient>
<linearGradient id="paint6_linear_126_23" x1="125.728" y1="166.231" x2="133.435" y2="154.625" gradientUnits="userSpaceOnUse">
<stop stop-color="#FEBBBA"/>
<stop offset="1" stop-color="#FF928E"/>
</linearGradient>
<linearGradient id="paint7_linear_126_23" x1="38.825" y1="222.175" x2="73.156" y2="222.501" gradientUnits="userSpaceOnUse">
<stop stop-color="#FEBBBA"/>
<stop offset="1" stop-color="#FF928E"/>
</linearGradient>
<linearGradient id="paint8_linear_126_23" x1="64.0638" y1="203.218" x2="77.0354" y2="178.037" gradientUnits="userSpaceOnUse">
<stop stop-color="#FEBBBA"/>
<stop offset="1" stop-color="#FF928E"/>
</linearGradient>
<linearGradient id="paint9_linear_126_23" x1="82.4232" y1="177.249" x2="67.5856" y2="168.005" gradientUnits="userSpaceOnUse">
<stop stop-color="#FEBBBA"/>
<stop offset="1" stop-color="#FF928E"/>
</linearGradient>
<linearGradient id="paint10_linear_126_23" x1="59.7755" y1="158.334" x2="78.9108" y2="173.745" gradientUnits="userSpaceOnUse">
<stop stop-color="#09005D"/>
<stop offset="1" stop-color="#1A0F91"/>
</linearGradient>
<linearGradient id="paint11_linear_126_23" x1="78.469" y1="180.606" x2="65.1194" y2="172.289" gradientUnits="userSpaceOnUse">
<stop stop-color="#FEBBBA"/>
<stop offset="1" stop-color="#FF928E"/>
</linearGradient>
<linearGradient id="paint12_linear_126_23" x1="82.3617" y1="200.361" x2="101.306" y2="279.294" gradientUnits="userSpaceOnUse">
<stop stop-color="#09005D"/>
<stop offset="1" stop-color="#1A0F91"/>
</linearGradient>
<linearGradient id="paint13_linear_126_23" x1="69.3801" y1="221.243" x2="80.1132" y2="221.243" gradientUnits="userSpaceOnUse">
<stop stop-color="#FEBBBA"/>
<stop offset="1" stop-color="#FF928E"/>
</linearGradient>
<linearGradient id="paint14_linear_126_23" x1="283.288" y1="159.191" x2="312.086" y2="205.344" gradientUnits="userSpaceOnUse">
<stop stop-color="#FEBBBA"/>
<stop offset="1" stop-color="#FF928E"/>
</linearGradient>
<linearGradient id="paint15_linear_126_23" x1="363.231" y1="154.943" x2="334.143" y2="174.336" gradientUnits="userSpaceOnUse">
<stop stop-color="#09005D"/>
<stop offset="1" stop-color="#1A0F91"/>
</linearGradient>
<linearGradient id="paint16_linear_126_23" x1="318.756" y1="191.117" x2="324.155" y2="179.126" gradientUnits="userSpaceOnUse">
<stop stop-color="#FEBBBA"/>
<stop offset="1" stop-color="#FF928E"/>
</linearGradient>
<linearGradient id="paint17_linear_126_23" x1="318.478" y1="161.977" x2="329.435" y2="185.699" gradientUnits="userSpaceOnUse">
<stop stop-color="#FEBBBA"/>
<stop offset="1" stop-color="#FF928E"/>
</linearGradient>
<linearGradient id="paint18_linear_126_23" x1="355.412" y1="143.218" x2="326.323" y2="162.613" gradientUnits="userSpaceOnUse">
<stop stop-color="#09005D"/>
<stop offset="1" stop-color="#1A0F91"/>
</linearGradient>
<linearGradient id="paint19_linear_126_23" x1="323.634" y1="159.596" x2="334.59" y2="183.318" gradientUnits="userSpaceOnUse">
<stop stop-color="#FEBBBA"/>
<stop offset="1" stop-color="#FF928E"/>
</linearGradient>
<linearGradient id="paint20_linear_126_23" x1="349.054" y1="340.438" x2="308.828" y2="267.832" gradientUnits="userSpaceOnUse">
<stop stop-color="#FEBBBA"/>
<stop offset="1" stop-color="#FF928E"/>
</linearGradient>
<linearGradient id="paint21_linear_126_23" x1="340.377" y1="314.82" x2="328.418" y2="314.707" gradientUnits="userSpaceOnUse">
<stop stop-color="#09005D"/>
<stop offset="1" stop-color="#1A0F91"/>
</linearGradient>
<linearGradient id="paint22_linear_126_23" x1="303.198" y1="286.573" x2="364.197" y2="306.719" gradientUnits="userSpaceOnUse">
<stop stop-color="#FEBBBA"/>
<stop offset="1" stop-color="#FF928E"/>
</linearGradient>
<linearGradient id="paint23_linear_126_23" x1="329.27" y1="316.875" x2="315.014" y2="316.739" gradientUnits="userSpaceOnUse">
<stop stop-color="#09005D"/>
<stop offset="1" stop-color="#1A0F91"/>
</linearGradient>
<linearGradient id="paint24_linear_126_23" x1="345.191" y1="228.422" x2="287.533" y2="142.933" gradientUnits="userSpaceOnUse">
<stop stop-color="#FEBBBA"/>
<stop offset="1" stop-color="#FF928E"/>
</linearGradient>
<linearGradient id="paint25_linear_126_23" x1="222.688" y1="301.25" x2="226.446" y2="315.812" gradientUnits="userSpaceOnUse">
<stop stop-color="#09005D"/>
<stop offset="1" stop-color="#1A0F91"/>
</linearGradient>
<linearGradient id="paint26_linear_126_23" x1="234.191" y1="309.26" x2="227.561" y2="307.792" gradientUnits="userSpaceOnUse">
<stop stop-color="#FEBBBA"/>
<stop offset="1" stop-color="#FF928E"/>
</linearGradient>
<linearGradient id="paint27_linear_126_23" x1="223.621" y1="315.338" x2="240.016" y2="350.618" gradientUnits="userSpaceOnUse">
<stop stop-color="#09005D"/>
<stop offset="1" stop-color="#1A0F91"/>
</linearGradient>
<linearGradient id="paint28_linear_126_23" x1="233.721" y1="324.429" x2="215.893" y2="320.483" gradientUnits="userSpaceOnUse">
<stop stop-color="#4F52FF"/>
<stop offset="1" stop-color="#4042E2"/>
</linearGradient>
<linearGradient id="paint29_linear_126_23" x1="237.631" y1="316.439" x2="231.408" y2="315.062" gradientUnits="userSpaceOnUse">
<stop stop-color="#FEBBBA"/>
<stop offset="1" stop-color="#FF928E"/>
</linearGradient>
<linearGradient id="paint30_linear_126_23" x1="229.731" y1="245.987" x2="208.025" y2="241.183" gradientUnits="userSpaceOnUse">
<stop stop-color="#FEBBBA"/>
<stop offset="1" stop-color="#FF928E"/>
</linearGradient>
<linearGradient id="paint31_linear_126_23" x1="262.302" y1="213.025" x2="247.901" y2="209.838" gradientUnits="userSpaceOnUse">
<stop stop-color="#FEBBBA"/>
<stop offset="1" stop-color="#FF928E"/>
</linearGradient>
<linearGradient id="paint32_linear_126_23" x1="273.741" y1="249.024" x2="330.937" y2="329.115" gradientUnits="userSpaceOnUse">
<stop stop-color="#FEBBBA"/>
<stop offset="1" stop-color="#FF928E"/>
</linearGradient>
<linearGradient id="paint33_linear_126_23" x1="254.331" y1="194.566" x2="247.096" y2="228.507" gradientUnits="userSpaceOnUse">
<stop stop-color="#FEBBBA"/>
<stop offset="1" stop-color="#FF928E"/>
</linearGradient>
<linearGradient id="paint34_linear_126_23" x1="264.338" y1="203.628" x2="249.922" y2="186.973" gradientUnits="userSpaceOnUse">
<stop stop-color="#09005D"/>
<stop offset="1" stop-color="#1A0F91"/>
</linearGradient>
<linearGradient id="paint35_linear_126_23" x1="257.179" y1="226.918" x2="258.973" y2="205.804" gradientUnits="userSpaceOnUse">
<stop stop-color="#FEBBBA"/>
<stop offset="1" stop-color="#FF928E"/>
</linearGradient>
</defs>
</svg>
